<mxfile host="Electron" modified="2024-01-16T23:48:19.359Z" agent="Mozilla/5.0 (Windows NT 10.0; Win64; x64) AppleWebKit/537.36 (KHTML, like Gecko) draw.io/22.1.16 Chrome/120.0.6099.109 Electron/28.1.0 Safari/537.36" etag="L52cRKFishVBBn0kgeSX" version="22.1.16" type="device">
  <diagram name="Page-1" id="RgbWbbCrqY0GIZyTWwe2">
    <mxGraphModel dx="2022" dy="1866" grid="1" gridSize="10" guides="1" tooltips="1" connect="1" arrows="1" fold="1" page="1" pageScale="1" pageWidth="827" pageHeight="1169" math="0" shadow="0">
      <root>
        <mxCell id="0" />
        <mxCell id="1" parent="0" />
        <mxCell id="NtcgmnStBljslIBxjJo6-1" value="&lt;div style=&quot;&quot;&gt;&lt;div style=&quot;&quot;&gt;&lt;span style=&quot;background-color: initial;&quot;&gt;PRINCIPAIS CAPACIDADE&lt;/span&gt;&lt;/div&gt;&lt;ol&gt;&lt;li style=&quot;text-align: justify;&quot;&gt;&lt;span style=&quot;background-color: initial;&quot;&gt;Escalabildiade alta&lt;/span&gt;&lt;br&gt;&lt;/li&gt;&lt;li style=&quot;text-align: justify;&quot;&gt;&lt;span style=&quot;background-color: initial;&quot;&gt;Alto throughput&lt;/span&gt;&lt;/li&gt;&lt;li style=&quot;text-align: justify;&quot;&gt;&lt;span style=&quot;background-color: initial;&quot;&gt;latencia baixissima. as 2ms&lt;/span&gt;&lt;/li&gt;&lt;li style=&quot;text-align: justify;&quot;&gt;&lt;span style=&quot;background-color: initial;&quot;&gt;alta disponibilidade&lt;/span&gt;&lt;/li&gt;&lt;/ol&gt;&lt;/div&gt;" style="rounded=0;whiteSpace=wrap;html=1;spacingRight=20;spacingLeft=0;" parent="1" vertex="1">
          <mxGeometry x="200" y="-280" width="400" height="130" as="geometry" />
        </mxCell>
        <mxCell id="NtcgmnStBljslIBxjJo6-4" value="&lt;div style=&quot;text-align: justify;&quot;&gt;&lt;span style=&quot;background-color: initial;&quot;&gt;O que é&lt;/span&gt;&lt;/div&gt;&lt;div style=&quot;text-align: justify;&quot;&gt;&lt;span style=&quot;background-color: initial;&quot;&gt;Ferramenta open source que trabalha de forma distribuida que pode enviar informaçoes de um sistema para outro.&lt;/span&gt;&lt;/div&gt;&lt;div style=&quot;text-align: justify;&quot;&gt;&lt;br&gt;&lt;span style=&quot;background-color: initial;&quot;&gt;Muito mais que um sistema de fila&lt;/span&gt;&lt;br&gt;&lt;br&gt;&lt;/div&gt;" style="rounded=0;whiteSpace=wrap;html=1;spacingRight=20;spacingLeft=0;" parent="1" vertex="1">
          <mxGeometry x="-230" y="-280" width="400" height="130" as="geometry" />
        </mxCell>
        <mxCell id="NtcgmnStBljslIBxjJo6-7" value="" style="edgeStyle=orthogonalEdgeStyle;rounded=0;orthogonalLoop=1;jettySize=auto;html=1;entryX=0;entryY=0.5;entryDx=0;entryDy=0;" parent="1" source="NtcgmnStBljslIBxjJo6-38" target="NtcgmnStBljslIBxjJo6-20" edge="1">
          <mxGeometry relative="1" as="geometry" />
        </mxCell>
        <mxCell id="NtcgmnStBljslIBxjJo6-22" style="edgeStyle=orthogonalEdgeStyle;rounded=0;orthogonalLoop=1;jettySize=auto;html=1;exitX=0.5;exitY=1;exitDx=0;exitDy=0;entryX=0;entryY=0.5;entryDx=0;entryDy=0;dashed=1;" parent="1" source="NtcgmnStBljslIBxjJo6-5" target="NtcgmnStBljslIBxjJo6-23" edge="1">
          <mxGeometry relative="1" as="geometry">
            <mxPoint x="-180" y="795.7142857142861" as="targetPoint" />
          </mxGeometry>
        </mxCell>
        <mxCell id="NtcgmnStBljslIBxjJo6-5" value="&lt;div style=&quot;&quot;&gt;&lt;div style=&quot;&quot;&gt;PRODUCER&lt;/div&gt;&lt;/div&gt;" style="rounded=0;whiteSpace=wrap;html=1;spacingRight=20;spacingLeft=20;" parent="1" vertex="1">
          <mxGeometry x="-413" y="330" width="120" height="70" as="geometry" />
        </mxCell>
        <mxCell id="NtcgmnStBljslIBxjJo6-27" style="edgeStyle=orthogonalEdgeStyle;rounded=0;orthogonalLoop=1;jettySize=auto;html=1;exitX=0.5;exitY=1;exitDx=0;exitDy=0;entryX=0;entryY=0.5;entryDx=0;entryDy=0;dashed=1;" parent="1" source="NtcgmnStBljslIBxjJo6-6" target="NtcgmnStBljslIBxjJo6-28" edge="1">
          <mxGeometry relative="1" as="geometry">
            <mxPoint x="-360" y="859.9999999999995" as="targetPoint" />
            <Array as="points">
              <mxPoint x="190" y="550" />
              <mxPoint x="-180" y="550" />
              <mxPoint x="-180" y="905" />
            </Array>
          </mxGeometry>
        </mxCell>
        <mxCell id="NtcgmnStBljslIBxjJo6-6" value="&lt;div style=&quot;&quot;&gt;&lt;div style=&quot;&quot;&gt;&lt;br&gt;&lt;/div&gt;&lt;/div&gt;" style="rounded=0;whiteSpace=wrap;html=1;spacingRight=20;spacingLeft=20;" parent="1" vertex="1">
          <mxGeometry x="50" y="210" width="280" height="310" as="geometry" />
        </mxCell>
        <mxCell id="NtcgmnStBljslIBxjJo6-8" value="&lt;div style=&quot;&quot;&gt;&lt;div style=&quot;&quot;&gt;BROKER 1&lt;/div&gt;&lt;/div&gt;" style="rounded=0;whiteSpace=wrap;html=1;spacingRight=20;spacingLeft=20;" parent="1" vertex="1">
          <mxGeometry x="130" y="250" width="120" height="40" as="geometry" />
        </mxCell>
        <mxCell id="NtcgmnStBljslIBxjJo6-9" value="" style="shape=image;verticalLabelPosition=bottom;verticalAlign=top;imageAspect=0;aspect=fixed;image=data:image/png,iVBORw0KGgoAAAANSUhEUgAAAFAAAABgCAYAAACKa/UAAAAAAXNSR0IArs4c6QAAAARnQU1BAACxjwv8YQUAAAAJcEhZcwAADsMAAA7DAcdvqGQAAABdaVRYdFNuaXBNZXRhZGF0YQAAAAAAeyJjbGlwUG9pbnRzIjpbeyJ4IjowLCJ5IjowfSx7IngiOjgwLCJ5IjowfSx7IngiOjgwLCJ5Ijo5Nn0seyJ4IjowLCJ5Ijo5Nn1dfSHEREgAABoASURBVHhe7VwJeFXVtd6ZR8jElBAmg0JVJmcZBMGnAlVASp9W31dFcGz1c2pfn21t1YIoOCv0AVoVW8GBSVCUqQ+VQWYZKyAIhEEIgczJTfZb/zp7nex7chNyc28w+t7/fStnuOfs4d9r773W2vskQhNUI6MqjDlEQBq9xPVHhK5sZAKpxuHMAASGNcEQEaGrGl8DGwWhlJpboSaQZC0/1YpIcwwd3LdqkR8AQJ5IMPjhauDpUFetAjSqkBdsmzcJAqkM5qxuREQGUbUgCQSEwGDw/xoYIhqHwDAW0A/BlPQMEdg4k8iPU6cDIrwaKC1LKWJci4iqburysnJ16NBhtX//t6qivEJVVlWq6KholZScpHJyclRaalr18yiRlZbfeX1R17PVxQoZjd6Fy0rL1Nq169SSJYvV3Llz1ZHDR5i8qMgoFRUdxST27tNbDRo0SPXr10/ldM4xbzrwVfhUdEx0cOSdSYDAcEiVr8oVwcEDB/Xjf35cn3P2Oah+nZIQn6BHjRylF3+6RBPpTgKSlJVPU5OwEciQI2H/vv367jvvdglq3qy5TkxI1OlpGbpZUjOd0jxFt2ndho9xsXE6OiqGn2vfrr1+829v6pKiEk7HbRQ7ryYkYSVQtA+ad8fYO1zyQByIwjE2Ota9L78lJSbz73KvZUZL/cH7szWNlZxewPyaiISdQHS/Jx5/wiUDxED75Do7K1sPvHKgvmrQv+lePXq590EsiIugYRnX+H3H9p0mYSftGnk2AQl7F966Zau+oNcFTEJ8XDx3V5zTpKFvv+12/fHCj1lDvzv6nV6zeo0e9+Q4JlWeAdk4gsinJzzNXfn/TBcuLSnVzz37nEteq5atXGKefOIv+lDuYe2rqHQeNigsKNQLPlyo22W342dBOMZEnF94wYX6651fu+nXyLMJSFgJPHr4qL76qqu58hjbMLPiHJqH32zYRKLbv/ziy/wsRLp8i/QWTK6MrQHz/Z4lPJ6IsftOnjypDhw4wOew30pLSxXNtGrUqFGqZauWfF8QFWWyJqpi42LV4CGDVf9+/flWQUEBHwuLClXuwYOKysnXTRHhc+UI+URgcUkJn5f7yokbrc477zzVpWsXJrnSV8W/ydFGq1atVJvMNnyO94CysjImsbLSx0RTi/P9WhFGD6O+CCuBpNOkeRXmykF0dLSKiHCygdbpSq0iI5ya4twmJcLcpwnEOdJ1BaVHncW5DiacZWCnH6gBcO+0DVMHwkog/NlmzZrxOVw1AK7b0aNH+NxPQ8y5dM/iomKVn5/P56KBILB58+YqMpKKKe96OHQJ8HJrrm3S/RoApySSf0OJDA+BJt+09DSVmZXJ53FxcYpmYrVx80a1cOFCVXDKGdekEtA+BA+ioqkI9P7qNavVhg0b+DeaifkI8jq076BiYmL4mlFbHeW+IYYh55a4RJnn3bHYIFgiw0MgCkdISkxSVw26is+rqqpUTLRT8SlTpqilS5ZyFAbPgjiJvIDIjRs38jNHSFPJhFGRplJnnXUWR2o4fVMnb+UCdWukWVxUok6dPKWKCoucfA3cvOU1nOIepRMordMhPNEYyZdSWrNmjRo9erTaum2rIu+Cb2NCaZvZVj3ym0fUoIGDVFbbLNbQvON5rHWvTn5VLfpkET8L7cPkgXfGjxuvHnzwQZ6lWWOpgkKgW1kr79zcXLVr1y61b+8+dTD3oDqZf1LFxsaqttnZqn27dtwYHTp24PQEkm6DAQJDEddLMIBh/MjDv0EtWWDT2f5v78t765+P+rm+5eZb9OBrB7MfLL8h0BAZEek+99Wmr0yqBG9+Vp5HDh3Rs96ZpYddP0xntsly07MFNimZSfr5557X3+z5pjqNECUsBLqGLkCn27Zu00MGD3ELn5qSyh4GdRK/SonA6IbRLBEZ+M+IyJSXlZtECXZeVnZ7v9mn773nXs5D0kOjoOHg0SBtcQ/xG8pw7TXX6s9WfO4a836NEqSETKArgBwJ69et19cNvc6tlERd5FoExEJD4frhGs9M/etUv3AW0hXy+Npg967d+tZf3uaXHoiECHlIFwTa2g3p2b2nXr5suX/ZGyBhIVAq5vVz0QXvueseP+1AhSRC4yW0T+8+esZbM3RRYbFJgeDJg68JcA2hefIuGgJp2ul5BVpoR3z69umrd329i9Nz0w5SwqaBfgTinjki6jJ/3nwe7zA+YSxCRaAhIBNd9+KLLtETnprAXZ8rIjBpS/qSLuKEb73xFmsYiABxSFeIQWDixn+/kcNqD9z/gP5Jl5+4AQo0JrQR55Df/efvNE02TsJWfvWV8HVhEqkkji4R5pCfl6/fe/c9N0IDIcNbT5s6jQd1v/EOwHsigBwJB/Yf0Ff0vYLTkK4qad55x1161cpVOu/4CZ7QIIgrvvjCS/qsjmfxM2hACeDmdMrh5+30/fI+jYSVQBGQx9qIawvQsM45nd3KkmnjFF4gz1tpedMA/rn8n7wcgDTQIDK2jb51NE8qgYAxFVormggCJVqEEBxCcX7wlqEWCY8h7QEMU/Z7xeg1h4oKn3NiAIO5qtIKLIg55jXLzPuAGN6I/AD5J/LJHatSl11ymRozZgzZee2d5yVreh7n8YnxasjQIRwZAmBriu89b948NrobgkYhUMAGqlX5qqrKalIJ8HHF62DgJxEDPG+/U1Jaqr744gs6Vkd9gAEDBqhu3bvxuQvzWqVpJLiGI0aMUK1bteaGg7cE5OYeUgWFjqsZLBqHQIsA1iajUTHk2pHiOxcERGlwzwYqC7GJsz0FhLZEk2nS4CN1RdWJ3D54NwKbdAZdIjLUsmVLlZGewWvTov2IDok2ssYGgUbVQC+KS4r9gqMIfXHLyy2qA4ILEPFPAZuMqKhoIsKJ9BDFfAShhQUFrkZ5weEzJEWCZyp8FU6YzaTvo0aRhvX2mtMhLASKttRodYBu0SyrPpz/ofrg/Q/Ud999Z35Q6tjxY2rO7Dlq1sxZiiYYVVpcan4xcOrnh5iYaNW5c2dz5cBXWaE2f7WZfV+BrbUCBBW2bt3KXTYqKsotb3x8vEpISODzoEGJBJxdghU/04UAs2TL5i168quTeRlTZjzMmLD/YHp4feTx48brL9es1QWnCkwqBMnDALPps5OedV0zmEKw/zAbvzvr3epdDQZ2mbBA1e38bvwe8hfz56EHH2JzhyH51VNCJ1BgndOMpl+b/pqfAQvSICANlYffC7HdOAjsMix1frv3W5NaNRA0mDJ5imtL4j00jPjQcM+wbOrnyQBUNtiasBElHxjwaEy8P3f2XPMgPSqKIPU7jYRHAy3kHszVf/z9H/20CwWF2ya2l5AJcuWe7adCxtw+xnWzgE0bN+tf3fsrV/Pgugnx0CTxQtBok56ZpJctWaa3b9vOGv2319/QI4aPcNOW3gAZPmy4E50hCHlnnEDOkAC3TVoZFQJpKCyIEsKk4LaAAPwG0uWI+9dfdz0T9+H8BRyKwj1oW2JCkt/7yAvumaQPkrFYf3bns3XHDp1cnxvPiR+Oa7wzb+48dwtJMMSJNIjAGq1EwNj0wvMvuJUS4qBZONqtjkpAg0TrcISg4nhWNAvSp3df6taO90LmOb2bxufRUbH63K7n6datHI8E79kkBhLkCcE5GgL+N4YbF1KfICR0AgE6Lvp4ERODwkmXAiHS5SAIGvz+0T9wxOXvb/+dCf/ZDT/jiUCeEaJtwslYIK2sJvXszl30Ky9N1vv3HdQLPvyIu231s46mgSDvsCCCBnrm6YnsL7swdQtWQuvCBggtIfqBwsnshkJKGAvd6bE/PMb7ZjDDStQG/icmC4xR2MaBZ1F5aAmOQkBigqM10MBrrx6iP1m0WJcWO8EHX0UVx/WuufoaDlXhudoE5ZKQWaiaJxLamogxtVatXMUu0uEjh3k5E0ZqWXkZ/9Y5p7Oa+MxE1e+Kfio9I53veYGFdqyNTJz4jJo5aybfo67Ia8IREVHkNVSo1JR0dd+v71O/uPlm1eUcsgPJgtWVVAQqQyUZx/n5J8hH3qRmz/5A7dmzhxeT4F3AVcS6SGpqqho8eIjq27ePateunbsuwjtgqbwNhpfR+gh3XwPYT/Z2NrSymBUYrLFWESg0HwgbN2zUl158Kb+LNOyZfMAVA8mO222ehObRHyQDZZbk6IjYHnZ/7dm9hyPWmMmxqQnhNLscfsNQCNLwLmyAnaiDBg7iSmK8A2kykN904y94ZhbIbFcDJj0YwTC8QRy6r9MYIDGCbLwL9GcrVrrPMoGImPnoaJXHRaB7NvC7PCPnDZCQXbmjR4+yAFgA560Y5CLReKRGjrxBpaSk8G8Auje6KwROu4SaZChAt8K68mWXXcYhqpKSEpVAblZ8bILaQi7Yli1bKH3qtwTx1EwMwOipJV6Ye5IvyujccA4NRWgEUuZ5J/J4vAF4CwYBIaaOnTqprl26Vu8qoGfhn8Kx5+gHnfv5q6Yi2NnQunVrPqdq8g59POerLFP5J04Q+Q6BLnGCuq4pbSbM5FEj7xAQsgYWFBSqU6dOKRqzqFJOclQ8dvoTEslBr62cuC9iKgZQx1DZ2dnmyh++ykqeMBjedK00/GCRZh/DhZAJBFHQEkREaFAwdxXH2kRbAgIVMwLtkC4VSd1cos0ACJXfooyGM5xbRGj173Jk4JTE714joMEE8vhFjYkAZXqaY56gsjAdIMfzjrubLW3U6D50SmOxs1+FAG0+dPgQnwN2yB87v2I8JodslQO86ULCrXFeNJhAqXBWZpZq0aIFnyPMjokC497Xu75WS5Yu4U0+jED1MPd4hxZAbbKR7MFt27bxJYaF8opy7rrZWe15XIXGu7DShKa52mbnhfNAAsgxBDS8C5uyZhB5PXv1ci4ICJVLRWbMmOGSUSdMWgf2H1BvvPmG2vftPiYPM3BpWQlPINgU1OWcc6jhnGcZ9B4UkKPXRkAK2Xu8ne5EXj4vFvHuLJNHQIRAZNSfHvvTn8x5UABJ6B4xsTEqNiZWfbTwIw7ZYyb2+XxUXs1jWQF1yR7dehDRGU5BRQDriMq+/vpr6qWXXuJ38Q0dvBmcA2mpGeqiCy9U2W3b0ZhLLAohorw0pBw+fFhtWL9BLVu2jMuzeMlitWLFCkUGNaV/gsuWnJzM0WjOm9LgetSY0oMAJVDDODytAHIkwJ8d0H8AqsRGMAxgOxiAb+Cwlss7AKz3AERxEClGVFiCEXZEJSEeaTnhKwQRXn7xVfK9jzkeiAGCAnM+mMMxP6w1y7u2wMBHSAxfA2Bh3q8cUq8GSMMJtAAXCQEBibuBPHgSNhHYFfDwQw/rt2e8rVf8zwq98ouV+v333tdPjX9Kd+/Ww6+iOOJd25WLi3EaBFGZ6386XK/7cgOTeGD/QQ60eiM6ELyPBkC5IiOqo0JDh/xUr/zcWtAHAtWzHtIwAiEewGW779f3u4VENIZGJfco90EsAp0gTWJzIuJD4x3/cJYjEpWBdDu/h5761+n61l+O9nsGESCQiQZAGnExWH9JpvvpHM2R5y7oeZH+4rOVjitoIVgfueEEQiwgU3RFhMilkOjKUhEQB42wtUoCBiIgTkiEgIjH/4wNQg8R2fIxYqR7Hh/rLArhXWiZt0G8EhUZq1ukt3KJHHjlVXr7th2mBgSqU7ABhgZPIi7M+IuBOCU1VZ177rk8mO/YuYPXXxPjE3lmTkxM5LASps1oGsQxSWBQj0+I5/vwfWHzIR08j90DEydOUneMvUP1HzCAt+du2rhZncg/TlUnnabpuNznLINyuoSiYselzOmUo4YOHapuuukm1bNHL5rIClVJcakqLS/m2T2N7NbCogL1zd49KjEhiXzvS91F+aAnlECsBiuu2hv8a8e/uDsTCTW0QMZG0Ujv7xBshcOWONlkCVSUV3E05uab/kM3T3YCtdFRcaR1/rtPf/vIb3kdBeErBGyJPI5cv/7aG7pjhxx+LjIi2k0jO6sd71YVuHWx6leXhJdAXBtgZgQJ2E4LItGdUWAIuiq6m0wYEFxjWRJfaPLeaJMWxih3nKJJY8/uvXrck0+5k0pK81ROD+fYcMkzbAAggv3uzPdd4tJSW1C3d/JHeN9eFz7jBIp4SUT8D8uc+Iwf5gM+OrTHOGgh1kkQkMXeQSzE19hmBnNFxGD+vAW6VQtnMSk+ziESoXoEZGtU3nrvVH6hHjPa+RAc46c0AkwwlFPwvRFoi3e7L8iEZmHhHIWGYMbE4lIN0gRIi5KBBkoEuqykQk965jnuhpIOBItVsqMBBFSLk4bI3NnzdWabbJrYkljwLvYsInrtgvKpL4kNd+XqAo3D8l2cABEbeCOYNAQx0TSgp6apuPjqXVVMh30kYFznXXB0xEagr7Z8RZOOjy4dv46GAv5YkWOP9J4ELFjoHdITFngtKENGRjp/SYr8AZ+veqcWI4h5pHEIRGGlEBYR1GbQeHPlgBrROZHbeE9u0bN4h2FKip1ZiaYRtHLCZdgs6aMZn2dQvG8TQO/xbeNDk9qocnIRYygdUkm+hzTdfADr9HRoHAIBKoREbOoCKsSgR91QP4gzRHM4ykoG4ayLL7mYtU4An/nLL9eqo0ecpQUGvYM0sOom7yPIsH79OrVv317+nzUwswCYMO7uLMrW28h1ofEIBDzlYA20W9oDN6xFYOJsmNfQKLAJmyU34+v0tAw+Lly4QH3y6Sc1vovjf9pjktqxY6eaMnmKu+QqZenTpw/ZsNVrN8GgcQkU1NGgXAnrdw5LWeSJNso2XaBt27a8XRfAtmFo48lTJ9WECRPUokWLqmOQBmWlZbz/cPz4cWr7zu18Dx9Glpc724P79+9fY39gjQasBaF7IjaQp1cI6FpYOP/440VqAWkKxiwAx2TSJIT+MQFAq9xQEwnGNBEQHWkqBa8Glf908aecRlJSMqdx9NhR9flnn/P3yVgdRL57du9R8+fPV5PIq1nw0QJ+P6V5Cq/lVNEYeOWAK9Xdd9/tBIVNedGg9fZIqHX9puWwCQFRGmy7wIeF2N4BD4TocP1eZI9r7NU7/7zzeU+hvY5smxLuuQEWzmGkSxrYWGR/EQU/Gv8FyQ5vwWOBwS5hM9JcPfMfM520CZJHfU0YSOMQSIBNNn3adI68SAUgIA4FR0W8zj8q+MD9D7ArKGmhMrApIVJRAOdLFy91/0eNBBQkpOYV3AfBdsPhX7HYDWbnKeenk/AQCFjX2LjzysuvuO4bjtAIiF0pCEiDqwdS4ZngHiI63m/YcPSrGAHGuU2iLdB2NJBEguzfQCZ2wXp3Z9l5ufmcRsJHoAEqhf97hW4phQU5qJBUANpi+8a4hnbYGomggF1BIdCtnAXs+kI0Wv4DUm2CPPAvpeA2cnTcAtKVr6uCITAsX6xTGq69duDbA+q+++9Ts+fMVtTyvLUDAzbWjTPbZKl+/fqq3r1706yXyF+XL1u2VK1dt5bTIbL5WFRcyP9v4Z1/vKOGjRjG90AB8gG8tiFsRyyj4gumxZ8u5oUsfAEgXyNhxsbOfsy2l19+uerQoaNrMsFOxIYA2S0RNITJkMQAm4Pg22KQRtfEwI4sIHDYEZ3BmIPnoKkIVyGA4P03eRLmwuZL7xjlpx0e4Dekjf2KSBf/mwt7pOHnYkxGnn6QdEKQsBKIbiEfWWPskW7aoX0HHqtQuUDA9jMhEcSDRJzjs9XVq1ZX50FHb/dyrz3g+/WBSaehElZDOi8vjyPRAL4eki+H7rrrLu469j97YIAmQpvM1urW225V3bv14Gi0GLh5eSfUTvIeqKB8bQP3IFQH/9+ZeufUPbfFC/RakQYgPASagh07dtzdD0PNo0rLShXZd2rgwIH8tSRgb2+z0bVrV144B8TQLikp5i+bQGogyJjFJMKHNn404Dee1UaSkCrSAISHQFOw4uIit/JSaWxVw/4Zgb29jbXIEBkdHaMys7L4nO7ykeZcDl/Z38B5JxA7PRE/wqxn/chysggZYe3C+OaMnXcCZmAAewcxCwuwPY3dJKqAuGkASMDGIufceZfGQ96tRaMNX9tgoixIl3YbRUiypREQVgIz22S6q1vwbWGKrFqzWq1bt57MBdEirLpRbShn5sWU4GBuLoeZAKzYAfHxCRz89Au4emBrnsiZRHgINK2L/53Vo3sPPseSJT5NxY/Tpk3jyQCIjsHnrE4lJchZWFCs5s6Zq1as+IyvEasDkpOTVKeOnficUU9uziiJpPI1puagxQCWPP4vAew4eB62HTh2zJ16w/pNurzMfyvA8WP5+sUXXnHXJ7AVQ7wWeA0BV9kCleF7krB4IggdYZcWgG+Dx44dy3sDgebJKepUIcY2rS6/tI+65ZZbOJ4XExur8o4f58/3p0+fzovkiQnNqOtHqZOn8nnBe+rU/1YjR44MvGbSVOBltMFigBAWNhDJ8mXLjFbk48q2jGoRjRPBMqOs2ULG3D6WP2/1Q6B8v2cJG4G2R4AgwKP/9agVMMCXm815HRZEiWCzEI7paS3JA6nepXDd0GF6/doNTmICK6+mJI1CIAAfFvG29DQnKgOB1oFIaCTIgwip8swNI0bxWFlRjoVcs75s5dPUJPgxMNDTMEnI9uJVOFgrZm4vIvtv6dLlNAtPV2u+XKMOH8l1fvCASOR/Vov/6TJ8xHBnKy8l5ePNRpQc7MUzbJ7UF+EhEHWDbWeMYi+wW3/jpk1kD65Vy5cvJ/fsGN9PTkpS3Xv04FWxnj17csgpKTmRf2NQY8Dw9v6bzqaE8BAIIJlABOIWCTQUbh7WYhEswE4AzK5w4bCZ3F1DpmSoTM65QVPVPiB8BNYCGikcAurDQQDygB8XgQ0ASEFwQb7LxbWrcUAtxAl+mASGWub6NAvyMM8xqU2YqNoQ5i4c6Eci5YfHS70RxukN5NUmP1Yo9b/WZ3Wtgs372gAAAABJRU5ErkJggg==" parent="1" vertex="1">
          <mxGeometry x="60" y="220" width="50" height="60" as="geometry" />
        </mxCell>
        <mxCell id="NtcgmnStBljslIBxjJo6-10" value="&lt;div style=&quot;&quot;&gt;&lt;div style=&quot;&quot;&gt;BROKER 2&lt;/div&gt;&lt;/div&gt;" style="rounded=0;whiteSpace=wrap;html=1;spacingRight=20;spacingLeft=20;" parent="1" vertex="1">
          <mxGeometry x="130" y="310" width="120" height="40" as="geometry" />
        </mxCell>
        <mxCell id="NtcgmnStBljslIBxjJo6-11" value="&lt;div style=&quot;&quot;&gt;&lt;div style=&quot;&quot;&gt;BROKER 3&lt;/div&gt;&lt;/div&gt;" style="rounded=0;whiteSpace=wrap;html=1;spacingRight=20;spacingLeft=20;" parent="1" vertex="1">
          <mxGeometry x="130" y="375" width="120" height="40" as="geometry" />
        </mxCell>
        <mxCell id="NtcgmnStBljslIBxjJo6-12" value="&lt;div style=&quot;&quot;&gt;&lt;div style=&quot;&quot;&gt;BROKER 4&lt;/div&gt;&lt;/div&gt;" style="rounded=0;whiteSpace=wrap;html=1;spacingRight=20;spacingLeft=20;" parent="1" vertex="1">
          <mxGeometry x="130" y="440" width="120" height="40" as="geometry" />
        </mxCell>
        <mxCell id="NtcgmnStBljslIBxjJo6-15" style="edgeStyle=orthogonalEdgeStyle;rounded=0;orthogonalLoop=1;jettySize=auto;html=1;exitX=0;exitY=0.5;exitDx=0;exitDy=0;" parent="1" source="NtcgmnStBljslIBxjJo6-14" target="NtcgmnStBljslIBxjJo6-6" edge="1">
          <mxGeometry relative="1" as="geometry" />
        </mxCell>
        <mxCell id="NtcgmnStBljslIBxjJo6-35" style="edgeStyle=orthogonalEdgeStyle;rounded=0;orthogonalLoop=1;jettySize=auto;html=1;exitX=0.5;exitY=1;exitDx=0;exitDy=0;entryX=0;entryY=0.5;entryDx=0;entryDy=0;dashed=1;" parent="1" source="NtcgmnStBljslIBxjJo6-14" target="NtcgmnStBljslIBxjJo6-34" edge="1">
          <mxGeometry relative="1" as="geometry">
            <Array as="points">
              <mxPoint x="560" y="590" />
              <mxPoint x="-120" y="590" />
              <mxPoint x="-120" y="1005" />
            </Array>
          </mxGeometry>
        </mxCell>
        <mxCell id="NtcgmnStBljslIBxjJo6-14" value="&lt;div style=&quot;&quot;&gt;&lt;div style=&quot;&quot;&gt;CONSUMER&lt;/div&gt;&lt;/div&gt;" style="rounded=0;whiteSpace=wrap;html=1;spacingRight=20;spacingLeft=20;" parent="1" vertex="1">
          <mxGeometry x="500" y="330" width="120" height="70" as="geometry" />
        </mxCell>
        <mxCell id="NtcgmnStBljslIBxjJo6-16" value="" style="endArrow=classic;startArrow=classic;html=1;rounded=0;" parent="1" edge="1">
          <mxGeometry width="50" height="50" relative="1" as="geometry">
            <mxPoint x="189.5" y="180" as="sourcePoint" />
            <mxPoint x="189.5" y="100" as="targetPoint" />
          </mxGeometry>
        </mxCell>
        <mxCell id="NtcgmnStBljslIBxjJo6-37" style="edgeStyle=orthogonalEdgeStyle;rounded=0;orthogonalLoop=1;jettySize=auto;html=1;exitX=0.5;exitY=1;exitDx=0;exitDy=0;entryX=0;entryY=0.5;entryDx=0;entryDy=0;dashed=1;" parent="1" source="NtcgmnStBljslIBxjJo6-17" target="NtcgmnStBljslIBxjJo6-36" edge="1">
          <mxGeometry relative="1" as="geometry">
            <Array as="points">
              <mxPoint x="190" y="620" />
              <mxPoint x="-70" y="620" />
              <mxPoint x="-70" y="1135" />
            </Array>
          </mxGeometry>
        </mxCell>
        <mxCell id="NtcgmnStBljslIBxjJo6-17" value="&lt;div style=&quot;&quot;&gt;&lt;div style=&quot;&quot;&gt;&lt;br&gt;&lt;/div&gt;&lt;/div&gt;" style="rounded=0;whiteSpace=wrap;html=1;spacingRight=20;spacingLeft=20;" parent="1" vertex="1">
          <mxGeometry x="55" y="-60" width="270" height="140" as="geometry" />
        </mxCell>
        <mxCell id="NtcgmnStBljslIBxjJo6-18" value="&lt;div style=&quot;&quot;&gt;&lt;div style=&quot;&quot;&gt;zookeeper 1&lt;/div&gt;&lt;/div&gt;" style="rounded=0;whiteSpace=wrap;html=1;spacingRight=20;spacingLeft=20;" parent="1" vertex="1">
          <mxGeometry x="130" y="-40" width="120" height="40" as="geometry" />
        </mxCell>
        <mxCell id="NtcgmnStBljslIBxjJo6-19" value="&lt;div style=&quot;&quot;&gt;&lt;div style=&quot;&quot;&gt;zookeeper&lt;span style=&quot;background-color: initial;&quot;&gt;&amp;nbsp;&lt;/span&gt;2&lt;/div&gt;&lt;/div&gt;" style="rounded=0;whiteSpace=wrap;html=1;spacingRight=20;spacingLeft=20;" parent="1" vertex="1">
          <mxGeometry x="130" y="20" width="120" height="40" as="geometry" />
        </mxCell>
        <mxCell id="NtcgmnStBljslIBxjJo6-21" style="edgeStyle=orthogonalEdgeStyle;rounded=0;orthogonalLoop=1;jettySize=auto;html=1;exitX=1;exitY=0.5;exitDx=0;exitDy=0;entryX=0;entryY=0.5;entryDx=0;entryDy=0;" parent="1" source="NtcgmnStBljslIBxjJo6-20" target="NtcgmnStBljslIBxjJo6-6" edge="1">
          <mxGeometry relative="1" as="geometry" />
        </mxCell>
        <mxCell id="NtcgmnStBljslIBxjJo6-25" style="edgeStyle=orthogonalEdgeStyle;rounded=0;orthogonalLoop=1;jettySize=auto;html=1;exitX=0.5;exitY=1;exitDx=0;exitDy=0;entryX=0;entryY=0.5;entryDx=0;entryDy=0;dashed=1;" parent="1" source="NtcgmnStBljslIBxjJo6-20" target="NtcgmnStBljslIBxjJo6-26" edge="1">
          <mxGeometry relative="1" as="geometry">
            <mxPoint x="-350" y="819.9999999999995" as="targetPoint" />
            <Array as="points">
              <mxPoint x="-85" y="460" />
              <mxPoint x="-260" y="460" />
              <mxPoint x="-260" y="805" />
            </Array>
          </mxGeometry>
        </mxCell>
        <mxCell id="NtcgmnStBljslIBxjJo6-33" style="rounded=0;orthogonalLoop=1;jettySize=auto;html=1;exitX=1;exitY=0;exitDx=0;exitDy=0;entryX=0;entryY=0.75;entryDx=0;entryDy=0;" parent="1" source="NtcgmnStBljslIBxjJo6-20" target="NtcgmnStBljslIBxjJo6-9" edge="1">
          <mxGeometry relative="1" as="geometry" />
        </mxCell>
        <mxCell id="NtcgmnStBljslIBxjJo6-20" value="" style="shape=image;verticalLabelPosition=bottom;verticalAlign=top;imageAspect=0;aspect=fixed;image=data:image/png,iVBORw0KGgoAAAANSUhEUgAAAFAAAABgCAYAAACKa/UAAAAAAXNSR0IArs4c6QAAAARnQU1BAACxjwv8YQUAAAAJcEhZcwAADsMAAA7DAcdvqGQAAABdaVRYdFNuaXBNZXRhZGF0YQAAAAAAeyJjbGlwUG9pbnRzIjpbeyJ4IjowLCJ5IjowfSx7IngiOjgwLCJ5IjowfSx7IngiOjgwLCJ5Ijo5Nn0seyJ4IjowLCJ5Ijo5Nn1dfSHEREgAABoASURBVHhe7VwJeFXVtd6ZR8jElBAmg0JVJmcZBMGnAlVASp9W31dFcGz1c2pfn21t1YIoOCv0AVoVW8GBSVCUqQ+VQWYZKyAIhEEIgczJTfZb/zp7nex7chNyc28w+t7/fStnuOfs4d9r773W2vskQhNUI6MqjDlEQBq9xPVHhK5sZAKpxuHMAASGNcEQEaGrGl8DGwWhlJpboSaQZC0/1YpIcwwd3LdqkR8AQJ5IMPjhauDpUFetAjSqkBdsmzcJAqkM5qxuREQGUbUgCQSEwGDw/xoYIhqHwDAW0A/BlPQMEdg4k8iPU6cDIrwaKC1LKWJci4iqburysnJ16NBhtX//t6qivEJVVlWq6KholZScpHJyclRaalr18yiRlZbfeX1R17PVxQoZjd6Fy0rL1Nq169SSJYvV3Llz1ZHDR5i8qMgoFRUdxST27tNbDRo0SPXr10/ldM4xbzrwVfhUdEx0cOSdSYDAcEiVr8oVwcEDB/Xjf35cn3P2Oah+nZIQn6BHjRylF3+6RBPpTgKSlJVPU5OwEciQI2H/vv367jvvdglq3qy5TkxI1OlpGbpZUjOd0jxFt2ndho9xsXE6OiqGn2vfrr1+829v6pKiEk7HbRQ7ryYkYSVQtA+ad8fYO1zyQByIwjE2Ota9L78lJSbz73KvZUZL/cH7szWNlZxewPyaiISdQHS/Jx5/wiUDxED75Do7K1sPvHKgvmrQv+lePXq590EsiIugYRnX+H3H9p0mYSftGnk2AQl7F966Zau+oNcFTEJ8XDx3V5zTpKFvv+12/fHCj1lDvzv6nV6zeo0e9+Q4JlWeAdk4gsinJzzNXfn/TBcuLSnVzz37nEteq5atXGKefOIv+lDuYe2rqHQeNigsKNQLPlyo22W342dBOMZEnF94wYX6651fu+nXyLMJSFgJPHr4qL76qqu58hjbMLPiHJqH32zYRKLbv/ziy/wsRLp8i/QWTK6MrQHz/Z4lPJ6IsftOnjypDhw4wOew30pLSxXNtGrUqFGqZauWfF8QFWWyJqpi42LV4CGDVf9+/flWQUEBHwuLClXuwYOKysnXTRHhc+UI+URgcUkJn5f7yokbrc477zzVpWsXJrnSV8W/ydFGq1atVJvMNnyO94CysjImsbLSx0RTi/P9WhFGD6O+CCuBpNOkeRXmykF0dLSKiHCygdbpSq0iI5ya4twmJcLcpwnEOdJ1BaVHncW5DiacZWCnH6gBcO+0DVMHwkog/NlmzZrxOVw1AK7b0aNH+NxPQ8y5dM/iomKVn5/P56KBILB58+YqMpKKKe96OHQJ8HJrrm3S/RoApySSf0OJDA+BJt+09DSVmZXJ53FxcYpmYrVx80a1cOFCVXDKGdekEtA+BA+ioqkI9P7qNavVhg0b+DeaifkI8jq076BiYmL4mlFbHeW+IYYh55a4RJnn3bHYIFgiw0MgCkdISkxSVw26is+rqqpUTLRT8SlTpqilS5ZyFAbPgjiJvIDIjRs38jNHSFPJhFGRplJnnXUWR2o4fVMnb+UCdWukWVxUok6dPKWKCoucfA3cvOU1nOIepRMordMhPNEYyZdSWrNmjRo9erTaum2rIu+Cb2NCaZvZVj3ym0fUoIGDVFbbLNbQvON5rHWvTn5VLfpkET8L7cPkgXfGjxuvHnzwQZ6lWWOpgkKgW1kr79zcXLVr1y61b+8+dTD3oDqZf1LFxsaqttnZqn27dtwYHTp24PQEkm6DAQJDEddLMIBh/MjDv0EtWWDT2f5v78t765+P+rm+5eZb9OBrB7MfLL8h0BAZEek+99Wmr0yqBG9+Vp5HDh3Rs96ZpYddP0xntsly07MFNimZSfr5557X3+z5pjqNECUsBLqGLkCn27Zu00MGD3ELn5qSyh4GdRK/SonA6IbRLBEZ+M+IyJSXlZtECXZeVnZ7v9mn773nXs5D0kOjoOHg0SBtcQ/xG8pw7TXX6s9WfO4a836NEqSETKArgBwJ69et19cNvc6tlERd5FoExEJD4frhGs9M/etUv3AW0hXy+Npg967d+tZf3uaXHoiECHlIFwTa2g3p2b2nXr5suX/ZGyBhIVAq5vVz0QXvueseP+1AhSRC4yW0T+8+esZbM3RRYbFJgeDJg68JcA2hefIuGgJp2ul5BVpoR3z69umrd329i9Nz0w5SwqaBfgTinjki6jJ/3nwe7zA+YSxCRaAhIBNd9+KLLtETnprAXZ8rIjBpS/qSLuKEb73xFmsYiABxSFeIQWDixn+/kcNqD9z/gP5Jl5+4AQo0JrQR55Df/efvNE02TsJWfvWV8HVhEqkkji4R5pCfl6/fe/c9N0IDIcNbT5s6jQd1v/EOwHsigBwJB/Yf0Ff0vYLTkK4qad55x1161cpVOu/4CZ7QIIgrvvjCS/qsjmfxM2hACeDmdMrh5+30/fI+jYSVQBGQx9qIawvQsM45nd3KkmnjFF4gz1tpedMA/rn8n7wcgDTQIDK2jb51NE8qgYAxFVormggCJVqEEBxCcX7wlqEWCY8h7QEMU/Z7xeg1h4oKn3NiAIO5qtIKLIg55jXLzPuAGN6I/AD5J/LJHatSl11ymRozZgzZee2d5yVreh7n8YnxasjQIRwZAmBriu89b948NrobgkYhUMAGqlX5qqrKalIJ8HHF62DgJxEDPG+/U1Jaqr744gs6Vkd9gAEDBqhu3bvxuQvzWqVpJLiGI0aMUK1bteaGg7cE5OYeUgWFjqsZLBqHQIsA1iajUTHk2pHiOxcERGlwzwYqC7GJsz0FhLZEk2nS4CN1RdWJ3D54NwKbdAZdIjLUsmVLlZGewWvTov2IDok2ssYGgUbVQC+KS4r9gqMIfXHLyy2qA4ILEPFPAZuMqKhoIsKJ9BDFfAShhQUFrkZ5weEzJEWCZyp8FU6YzaTvo0aRhvX2mtMhLASKttRodYBu0SyrPpz/ofrg/Q/Ud999Z35Q6tjxY2rO7Dlq1sxZiiYYVVpcan4xcOrnh5iYaNW5c2dz5cBXWaE2f7WZfV+BrbUCBBW2bt3KXTYqKsotb3x8vEpISODzoEGJBJxdghU/04UAs2TL5i168quTeRlTZjzMmLD/YHp4feTx48brL9es1QWnCkwqBMnDALPps5OedV0zmEKw/zAbvzvr3epdDQZ2mbBA1e38bvwe8hfz56EHH2JzhyH51VNCJ1BgndOMpl+b/pqfAQvSICANlYffC7HdOAjsMix1frv3W5NaNRA0mDJ5imtL4j00jPjQcM+wbOrnyQBUNtiasBElHxjwaEy8P3f2XPMgPSqKIPU7jYRHAy3kHszVf/z9H/20CwWF2ya2l5AJcuWe7adCxtw+xnWzgE0bN+tf3fsrV/Pgugnx0CTxQtBok56ZpJctWaa3b9vOGv2319/QI4aPcNOW3gAZPmy4E50hCHlnnEDOkAC3TVoZFQJpKCyIEsKk4LaAAPwG0uWI+9dfdz0T9+H8BRyKwj1oW2JCkt/7yAvumaQPkrFYf3bns3XHDp1cnxvPiR+Oa7wzb+48dwtJMMSJNIjAGq1EwNj0wvMvuJUS4qBZONqtjkpAg0TrcISg4nhWNAvSp3df6taO90LmOb2bxufRUbH63K7n6datHI8E79kkBhLkCcE5GgL+N4YbF1KfICR0AgE6Lvp4ERODwkmXAiHS5SAIGvz+0T9wxOXvb/+dCf/ZDT/jiUCeEaJtwslYIK2sJvXszl30Ky9N1vv3HdQLPvyIu231s46mgSDvsCCCBnrm6YnsL7swdQtWQuvCBggtIfqBwsnshkJKGAvd6bE/PMb7ZjDDStQG/icmC4xR2MaBZ1F5aAmOQkBigqM10MBrrx6iP1m0WJcWO8EHX0UVx/WuufoaDlXhudoE5ZKQWaiaJxLamogxtVatXMUu0uEjh3k5E0ZqWXkZ/9Y5p7Oa+MxE1e+Kfio9I53veYGFdqyNTJz4jJo5aybfo67Ia8IREVHkNVSo1JR0dd+v71O/uPlm1eUcsgPJgtWVVAQqQyUZx/n5J8hH3qRmz/5A7dmzhxeT4F3AVcS6SGpqqho8eIjq27ePateunbsuwjtgqbwNhpfR+gh3XwPYT/Z2NrSymBUYrLFWESg0HwgbN2zUl158Kb+LNOyZfMAVA8mO222ehObRHyQDZZbk6IjYHnZ/7dm9hyPWmMmxqQnhNLscfsNQCNLwLmyAnaiDBg7iSmK8A2kykN904y94ZhbIbFcDJj0YwTC8QRy6r9MYIDGCbLwL9GcrVrrPMoGImPnoaJXHRaB7NvC7PCPnDZCQXbmjR4+yAFgA560Y5CLReKRGjrxBpaSk8G8Auje6KwROu4SaZChAt8K68mWXXcYhqpKSEpVAblZ8bILaQi7Yli1bKH3qtwTx1EwMwOipJV6Ye5IvyujccA4NRWgEUuZ5J/J4vAF4CwYBIaaOnTqprl26Vu8qoGfhn8Kx5+gHnfv5q6Yi2NnQunVrPqdq8g59POerLFP5J04Q+Q6BLnGCuq4pbSbM5FEj7xAQsgYWFBSqU6dOKRqzqFJOclQ8dvoTEslBr62cuC9iKgZQx1DZ2dnmyh++ykqeMBjedK00/GCRZh/DhZAJBFHQEkREaFAwdxXH2kRbAgIVMwLtkC4VSd1cos0ACJXfooyGM5xbRGj173Jk4JTE714joMEE8vhFjYkAZXqaY56gsjAdIMfzjrubLW3U6D50SmOxs1+FAG0+dPgQnwN2yB87v2I8JodslQO86ULCrXFeNJhAqXBWZpZq0aIFnyPMjokC497Xu75WS5Yu4U0+jED1MPd4hxZAbbKR7MFt27bxJYaF8opy7rrZWe15XIXGu7DShKa52mbnhfNAAsgxBDS8C5uyZhB5PXv1ci4ICJVLRWbMmOGSUSdMWgf2H1BvvPmG2vftPiYPM3BpWQlPINgU1OWcc6jhnGcZ9B4UkKPXRkAK2Xu8ne5EXj4vFvHuLJNHQIRAZNSfHvvTn8x5UABJ6B4xsTEqNiZWfbTwIw7ZYyb2+XxUXs1jWQF1yR7dehDRGU5BRQDriMq+/vpr6qWXXuJ38Q0dvBmcA2mpGeqiCy9U2W3b0ZhLLAohorw0pBw+fFhtWL9BLVu2jMuzeMlitWLFCkUGNaV/gsuWnJzM0WjOm9LgetSY0oMAJVDDODytAHIkwJ8d0H8AqsRGMAxgOxiAb+Cwlss7AKz3AERxEClGVFiCEXZEJSEeaTnhKwQRXn7xVfK9jzkeiAGCAnM+mMMxP6w1y7u2wMBHSAxfA2Bh3q8cUq8GSMMJtAAXCQEBibuBPHgSNhHYFfDwQw/rt2e8rVf8zwq98ouV+v333tdPjX9Kd+/Ww6+iOOJd25WLi3EaBFGZ6386XK/7cgOTeGD/QQ60eiM6ELyPBkC5IiOqo0JDh/xUr/zcWtAHAtWzHtIwAiEewGW779f3u4VENIZGJfco90EsAp0gTWJzIuJD4x3/cJYjEpWBdDu/h5761+n61l+O9nsGESCQiQZAGnExWH9JpvvpHM2R5y7oeZH+4rOVjitoIVgfueEEQiwgU3RFhMilkOjKUhEQB42wtUoCBiIgTkiEgIjH/4wNQg8R2fIxYqR7Hh/rLArhXWiZt0G8EhUZq1ukt3KJHHjlVXr7th2mBgSqU7ABhgZPIi7M+IuBOCU1VZ177rk8mO/YuYPXXxPjE3lmTkxM5LASps1oGsQxSWBQj0+I5/vwfWHzIR08j90DEydOUneMvUP1HzCAt+du2rhZncg/TlUnnabpuNznLINyuoSiYselzOmUo4YOHapuuukm1bNHL5rIClVJcakqLS/m2T2N7NbCogL1zd49KjEhiXzvS91F+aAnlECsBiuu2hv8a8e/uDsTCTW0QMZG0Ujv7xBshcOWONlkCVSUV3E05uab/kM3T3YCtdFRcaR1/rtPf/vIb3kdBeErBGyJPI5cv/7aG7pjhxx+LjIi2k0jO6sd71YVuHWx6leXhJdAXBtgZgQJ2E4LItGdUWAIuiq6m0wYEFxjWRJfaPLeaJMWxih3nKJJY8/uvXrck0+5k0pK81ROD+fYcMkzbAAggv3uzPdd4tJSW1C3d/JHeN9eFz7jBIp4SUT8D8uc+Iwf5gM+OrTHOGgh1kkQkMXeQSzE19hmBnNFxGD+vAW6VQtnMSk+ziESoXoEZGtU3nrvVH6hHjPa+RAc46c0AkwwlFPwvRFoi3e7L8iEZmHhHIWGYMbE4lIN0gRIi5KBBkoEuqykQk965jnuhpIOBItVsqMBBFSLk4bI3NnzdWabbJrYkljwLvYsInrtgvKpL4kNd+XqAo3D8l2cABEbeCOYNAQx0TSgp6apuPjqXVVMh30kYFznXXB0xEagr7Z8RZOOjy4dv46GAv5YkWOP9J4ELFjoHdITFngtKENGRjp/SYr8AZ+veqcWI4h5pHEIRGGlEBYR1GbQeHPlgBrROZHbeE9u0bN4h2FKip1ZiaYRtHLCZdgs6aMZn2dQvG8TQO/xbeNDk9qocnIRYygdUkm+hzTdfADr9HRoHAIBKoREbOoCKsSgR91QP4gzRHM4ykoG4ayLL7mYtU4An/nLL9eqo0ecpQUGvYM0sOom7yPIsH79OrVv317+nzUwswCYMO7uLMrW28h1ofEIBDzlYA20W9oDN6xFYOJsmNfQKLAJmyU34+v0tAw+Lly4QH3y6Sc1vovjf9pjktqxY6eaMnmKu+QqZenTpw/ZsNVrN8GgcQkU1NGgXAnrdw5LWeSJNso2XaBt27a8XRfAtmFo48lTJ9WECRPUokWLqmOQBmWlZbz/cPz4cWr7zu18Dx9Glpc724P79+9fY39gjQasBaF7IjaQp1cI6FpYOP/440VqAWkKxiwAx2TSJIT+MQFAq9xQEwnGNBEQHWkqBa8Glf908aecRlJSMqdx9NhR9flnn/P3yVgdRL57du9R8+fPV5PIq1nw0QJ+P6V5Cq/lVNEYeOWAK9Xdd9/tBIVNedGg9fZIqHX9puWwCQFRGmy7wIeF2N4BD4TocP1eZI9r7NU7/7zzeU+hvY5smxLuuQEWzmGkSxrYWGR/EQU/Gv8FyQ5vwWOBwS5hM9JcPfMfM520CZJHfU0YSOMQSIBNNn3adI68SAUgIA4FR0W8zj8q+MD9D7ArKGmhMrApIVJRAOdLFy91/0eNBBQkpOYV3AfBdsPhX7HYDWbnKeenk/AQCFjX2LjzysuvuO4bjtAIiF0pCEiDqwdS4ZngHiI63m/YcPSrGAHGuU2iLdB2NJBEguzfQCZ2wXp3Z9l5ufmcRsJHoAEqhf97hW4phQU5qJBUANpi+8a4hnbYGomggF1BIdCtnAXs+kI0Wv4DUm2CPPAvpeA2cnTcAtKVr6uCITAsX6xTGq69duDbA+q+++9Ts+fMVtTyvLUDAzbWjTPbZKl+/fqq3r1706yXyF+XL1u2VK1dt5bTIbL5WFRcyP9v4Z1/vKOGjRjG90AB8gG8tiFsRyyj4gumxZ8u5oUsfAEgXyNhxsbOfsy2l19+uerQoaNrMsFOxIYA2S0RNITJkMQAm4Pg22KQRtfEwI4sIHDYEZ3BmIPnoKkIVyGA4P03eRLmwuZL7xjlpx0e4Dekjf2KSBf/mwt7pOHnYkxGnn6QdEKQsBKIbiEfWWPskW7aoX0HHqtQuUDA9jMhEcSDRJzjs9XVq1ZX50FHb/dyrz3g+/WBSaehElZDOi8vjyPRAL4eki+H7rrrLu469j97YIAmQpvM1urW225V3bv14Gi0GLh5eSfUTvIeqKB8bQP3IFQH/9+ZeufUPbfFC/RakQYgPASagh07dtzdD0PNo0rLShXZd2rgwIH8tSRgb2+z0bVrV144B8TQLikp5i+bQGogyJjFJMKHNn404Dee1UaSkCrSAISHQFOw4uIit/JSaWxVw/4Zgb29jbXIEBkdHaMys7L4nO7ykeZcDl/Z38B5JxA7PRE/wqxn/chysggZYe3C+OaMnXcCZmAAewcxCwuwPY3dJKqAuGkASMDGIufceZfGQ96tRaMNX9tgoixIl3YbRUiypREQVgIz22S6q1vwbWGKrFqzWq1bt57MBdEirLpRbShn5sWU4GBuLoeZAKzYAfHxCRz89Au4emBrnsiZRHgINK2L/53Vo3sPPseSJT5NxY/Tpk3jyQCIjsHnrE4lJchZWFCs5s6Zq1as+IyvEasDkpOTVKeOnficUU9uziiJpPI1puagxQCWPP4vAew4eB62HTh2zJ16w/pNurzMfyvA8WP5+sUXXnHXJ7AVQ7wWeA0BV9kCleF7krB4IggdYZcWgG+Dx44dy3sDgebJKepUIcY2rS6/tI+65ZZbOJ4XExur8o4f58/3p0+fzovkiQnNqOtHqZOn8nnBe+rU/1YjR44MvGbSVOBltMFigBAWNhDJ8mXLjFbk48q2jGoRjRPBMqOs2ULG3D6WP2/1Q6B8v2cJG4G2R4AgwKP/9agVMMCXm815HRZEiWCzEI7paS3JA6nepXDd0GF6/doNTmICK6+mJI1CIAAfFvG29DQnKgOB1oFIaCTIgwip8swNI0bxWFlRjoVcs75s5dPUJPgxMNDTMEnI9uJVOFgrZm4vIvtv6dLlNAtPV2u+XKMOH8l1fvCASOR/Vov/6TJ8xHBnKy8l5ePNRpQc7MUzbJ7UF+EhEHWDbWeMYi+wW3/jpk1kD65Vy5cvJ/fsGN9PTkpS3Xv04FWxnj17csgpKTmRf2NQY8Dw9v6bzqaE8BAIIJlABOIWCTQUbh7WYhEswE4AzK5w4bCZ3F1DpmSoTM65QVPVPiB8BNYCGikcAurDQQDygB8XgQ0ASEFwQb7LxbWrcUAtxAl+mASGWub6NAvyMM8xqU2YqNoQ5i4c6Eci5YfHS70RxukN5NUmP1Yo9b/WZ3Wtgs372gAAAABJRU5ErkJggg==" parent="1" vertex="1">
          <mxGeometry x="-110" y="335" width="50" height="60" as="geometry" />
        </mxCell>
        <mxCell id="NtcgmnStBljslIBxjJo6-23" value="&lt;div style=&quot;&quot;&gt;&lt;div style=&quot;text-align: justify;&quot;&gt;1 - PRODUCER&lt;/div&gt;&lt;div style=&quot;text-align: justify;&quot;&gt;O QUE É?: Qualquer ccoisa que aconteça que vai gerar o dado&lt;/div&gt;&lt;div style=&quot;text-align: justify;&quot;&gt;Eesse dado será encaminhado para o kafka(2)&lt;/div&gt;&lt;/div&gt;" style="rounded=0;whiteSpace=wrap;html=1;spacingRight=20;spacingLeft=20;" parent="1" vertex="1">
          <mxGeometry x="-50" y="650" width="400" height="70" as="geometry" />
        </mxCell>
        <mxCell id="NtcgmnStBljslIBxjJo6-26" value="&lt;div style=&quot;&quot;&gt;&lt;div style=&quot;text-align: justify;&quot;&gt;2 - KAFKA&lt;/div&gt;&lt;div style=&quot;text-align: justify;&quot;&gt;O QUE É?Ferramenta de mensageria que funciona no formato de um kluster.&lt;br&gt;&lt;/div&gt;&lt;div style=&quot;text-align: justify;&quot;&gt;Diversas máquina rodando kafka (um cluster com diversos brokers)&lt;/div&gt;&lt;/div&gt;" style="rounded=0;whiteSpace=wrap;html=1;spacingRight=20;spacingLeft=20;" parent="1" vertex="1">
          <mxGeometry x="-50" y="770" width="400" height="70" as="geometry" />
        </mxCell>
        <mxCell id="NtcgmnStBljslIBxjJo6-28" value="&lt;div style=&quot;&quot;&gt;&lt;div style=&quot;text-align: justify;&quot;&gt;&lt;span style=&quot;background-color: initial;&quot;&gt;3 - BROKER&lt;/span&gt;&lt;/div&gt;&lt;div style=&quot;text-align: justify;&quot;&gt;&lt;span style=&quot;background-color: initial;&quot;&gt;&amp;nbsp;O QUE É? É uma máquina do cluster rodando kafka&amp;nbsp;&lt;/span&gt;&lt;/div&gt;&lt;/div&gt;" style="rounded=0;whiteSpace=wrap;html=1;spacingRight=20;spacingLeft=20;align=left;" parent="1" vertex="1">
          <mxGeometry x="-50" y="870" width="400" height="70" as="geometry" />
        </mxCell>
        <mxCell id="NtcgmnStBljslIBxjJo6-29" value="" style="html=1;verticalLabelPosition=bottom;align=center;labelBackgroundColor=#ffffff;verticalAlign=top;strokeWidth=2;strokeColor=#0080F0;shadow=0;dashed=0;shape=mxgraph.ios7.icons.data;" parent="1" vertex="1">
          <mxGeometry x="240" y="270.9" width="24" height="29.099999999999998" as="geometry" />
        </mxCell>
        <mxCell id="NtcgmnStBljslIBxjJo6-30" value="" style="html=1;verticalLabelPosition=bottom;align=center;labelBackgroundColor=#ffffff;verticalAlign=top;strokeWidth=2;strokeColor=#0080F0;shadow=0;dashed=0;shape=mxgraph.ios7.icons.data;" parent="1" vertex="1">
          <mxGeometry x="240" y="335" width="24" height="29.099999999999998" as="geometry" />
        </mxCell>
        <mxCell id="NtcgmnStBljslIBxjJo6-31" value="" style="html=1;verticalLabelPosition=bottom;align=center;labelBackgroundColor=#ffffff;verticalAlign=top;strokeWidth=2;strokeColor=#0080F0;shadow=0;dashed=0;shape=mxgraph.ios7.icons.data;" parent="1" vertex="1">
          <mxGeometry x="240" y="400" width="24" height="29.099999999999998" as="geometry" />
        </mxCell>
        <mxCell id="NtcgmnStBljslIBxjJo6-32" value="" style="html=1;verticalLabelPosition=bottom;align=center;labelBackgroundColor=#ffffff;verticalAlign=top;strokeWidth=2;strokeColor=#0080F0;shadow=0;dashed=0;shape=mxgraph.ios7.icons.data;" parent="1" vertex="1">
          <mxGeometry x="240" y="470" width="24" height="29.099999999999998" as="geometry" />
        </mxCell>
        <mxCell id="NtcgmnStBljslIBxjJo6-34" value="&lt;div style=&quot;&quot;&gt;&lt;div style=&quot;text-align: justify;&quot;&gt;&lt;span style=&quot;background-color: initial;&quot;&gt;4 - consumer&lt;/span&gt;&lt;/div&gt;&lt;div style=&quot;text-align: justify;&quot;&gt;&lt;span style=&quot;background-color: initial;&quot;&gt;&amp;nbsp;O QUE É? É o sistema que vai consumir o dado. fica a todo momento consumindo o que está sendo gerado no cluster kafka dentro dos brokers&lt;/span&gt;&lt;span style=&quot;background-color: initial;&quot;&gt;&amp;nbsp;&lt;/span&gt;&lt;/div&gt;&lt;/div&gt;" style="rounded=0;whiteSpace=wrap;html=1;spacingRight=20;spacingLeft=20;" parent="1" vertex="1">
          <mxGeometry x="-50" y="970" width="400" height="70" as="geometry" />
        </mxCell>
        <mxCell id="NtcgmnStBljslIBxjJo6-36" value="&lt;div style=&quot;&quot;&gt;&lt;div style=&quot;&quot;&gt;&lt;span style=&quot;background-color: initial;&quot;&gt;5 - zookeeper&lt;/span&gt;&lt;/div&gt;&lt;div style=&quot;&quot;&gt;&lt;span style=&quot;background-color: initial;&quot;&gt;&amp;nbsp;O QUE É? É um siste dee servicedescovery&lt;/span&gt;&lt;/div&gt;&lt;div style=&quot;&quot;&gt;&lt;span style=&quot;background-color: initial;&quot;&gt;Um sistema que gerencia:&lt;/span&gt;&lt;/div&gt;&lt;div style=&quot;&quot;&gt;&lt;ul&gt;&lt;li&gt;&lt;span style=&quot;background-color: initial;&quot;&gt;Cluster do kafka&amp;nbsp;&lt;/span&gt;&lt;/li&gt;&lt;li&gt;&lt;span style=&quot;background-color: initial;&quot;&gt;erros e recuperacao de arquivos,&amp;nbsp;&lt;/span&gt;&lt;/li&gt;&lt;li&gt;&lt;span style=&quot;background-color: initial;&quot;&gt;permissoes&lt;/span&gt;&lt;/li&gt;&lt;/ul&gt;&lt;/div&gt;&lt;/div&gt;" style="rounded=0;whiteSpace=wrap;html=1;spacingRight=20;spacingLeft=20;align=left;" parent="1" vertex="1">
          <mxGeometry x="-50" y="1070" width="400" height="130" as="geometry" />
        </mxCell>
        <mxCell id="NtcgmnStBljslIBxjJo6-39" value="" style="edgeStyle=orthogonalEdgeStyle;rounded=0;orthogonalLoop=1;jettySize=auto;html=1;entryX=0;entryY=0.5;entryDx=0;entryDy=0;" parent="1" source="NtcgmnStBljslIBxjJo6-5" target="NtcgmnStBljslIBxjJo6-38" edge="1">
          <mxGeometry relative="1" as="geometry">
            <mxPoint x="-293" y="365" as="sourcePoint" />
            <mxPoint x="-110" y="365" as="targetPoint" />
          </mxGeometry>
        </mxCell>
        <mxCell id="NtcgmnStBljslIBxjJo6-40" style="edgeStyle=orthogonalEdgeStyle;rounded=0;orthogonalLoop=1;jettySize=auto;html=1;exitX=0.5;exitY=1;exitDx=0;exitDy=0;dashed=1;dashPattern=8 8;" parent="1" source="NtcgmnStBljslIBxjJo6-38" target="NtcgmnStBljslIBxjJo6-41" edge="1">
          <mxGeometry relative="1" as="geometry">
            <mxPoint x="-270" y="1530" as="targetPoint" />
            <Array as="points">
              <mxPoint x="-210" y="430" />
              <mxPoint x="-440" y="430" />
              <mxPoint x="-440" y="1530" />
            </Array>
          </mxGeometry>
        </mxCell>
        <mxCell id="NtcgmnStBljslIBxjJo6-38" value="topic" style="text;html=1;strokeColor=none;fillColor=none;align=center;verticalAlign=middle;whiteSpace=wrap;rounded=0;" parent="1" vertex="1">
          <mxGeometry x="-240" y="350" width="60" height="30" as="geometry" />
        </mxCell>
        <mxCell id="NtcgmnStBljslIBxjJo6-55" value="" style="group;labelBorderColor=none;whiteSpace=wrap;html=1;" parent="1" vertex="1" connectable="0">
          <mxGeometry x="-400" y="1380" width="900" height="790" as="geometry" />
        </mxCell>
        <mxCell id="NtcgmnStBljslIBxjJo6-41" value="6- TOPIC&amp;nbsp;&lt;br&gt;O QUE É ? é um direcionador de mensagem/informaçao (sao as filas do event)&lt;br&gt;COMO FUNCIONA? o producer envia esse tipo de informácao para o kafka onde disponibilizará para 1 consumer ou vários consumers que podem ser aplicaçoes &lt;br&gt;totalmente diferentes&lt;br&gt;&lt;br&gt;Podemos ter inumeros tópicos numa mesma aplicação:&lt;br&gt;EX: &lt;br&gt;tópicos de produtos vendidos&lt;br&gt;&#x9;eventos que acontecem no carrro&lt;br&gt;&#x9;temperatura do ar numa estaçao de mediçao&amp;nbsp;" style="rounded=0;spacingRight=20;spacingLeft=20;align=left;html=1;labelBorderColor=none;labelBackgroundColor=none;fontColor=default;verticalAlign=top;" parent="NtcgmnStBljslIBxjJo6-55" vertex="1">
          <mxGeometry width="900" height="790" as="geometry" />
        </mxCell>
        <mxCell id="NtcgmnStBljslIBxjJo6-60" value="" style="group" parent="NtcgmnStBljslIBxjJo6-55" vertex="1" connectable="0">
          <mxGeometry x="20" y="118.0909090909091" width="654.5454545454545" height="285.9090909090909" as="geometry" />
        </mxCell>
        <mxCell id="NtcgmnStBljslIBxjJo6-42" value="&lt;div style=&quot;&quot;&gt;&lt;div style=&quot;&quot;&gt;PRODUCER&lt;/div&gt;&lt;/div&gt;" style="rounded=0;whiteSpace=wrap;html=1;spacingRight=20;spacingLeft=20;" parent="NtcgmnStBljslIBxjJo6-60" vertex="1">
          <mxGeometry y="100.45454545454547" width="140.25974025974025" height="108.18181818181817" as="geometry" />
        </mxCell>
        <mxCell id="NtcgmnStBljslIBxjJo6-44" value="&lt;div style=&quot;&quot;&gt;&lt;div style=&quot;&quot;&gt;CONSUMER&lt;/div&gt;&lt;/div&gt;" style="rounded=0;whiteSpace=wrap;html=1;spacingRight=20;spacingLeft=20;" parent="NtcgmnStBljslIBxjJo6-60" vertex="1">
          <mxGeometry x="514.2857142857142" width="140.25974025974025" height="108.18181818181817" as="geometry" />
        </mxCell>
        <mxCell id="NtcgmnStBljslIBxjJo6-45" value="" style="shape=image;verticalLabelPosition=bottom;verticalAlign=top;imageAspect=0;aspect=fixed;image=data:image/png,iVBORw0KGgoAAAANSUhEUgAAAFAAAABgCAYAAACKa/UAAAAAAXNSR0IArs4c6QAAAARnQU1BAACxjwv8YQUAAAAJcEhZcwAADsMAAA7DAcdvqGQAAABdaVRYdFNuaXBNZXRhZGF0YQAAAAAAeyJjbGlwUG9pbnRzIjpbeyJ4IjowLCJ5IjowfSx7IngiOjgwLCJ5IjowfSx7IngiOjgwLCJ5Ijo5Nn0seyJ4IjowLCJ5Ijo5Nn1dfSHEREgAABoASURBVHhe7VwJeFXVtd6ZR8jElBAmg0JVJmcZBMGnAlVASp9W31dFcGz1c2pfn21t1YIoOCv0AVoVW8GBSVCUqQ+VQWYZKyAIhEEIgczJTfZb/zp7nex7chNyc28w+t7/fStnuOfs4d9r773W2vskQhNUI6MqjDlEQBq9xPVHhK5sZAKpxuHMAASGNcEQEaGrGl8DGwWhlJpboSaQZC0/1YpIcwwd3LdqkR8AQJ5IMPjhauDpUFetAjSqkBdsmzcJAqkM5qxuREQGUbUgCQSEwGDw/xoYIhqHwDAW0A/BlPQMEdg4k8iPU6cDIrwaKC1LKWJci4iqburysnJ16NBhtX//t6qivEJVVlWq6KholZScpHJyclRaalr18yiRlZbfeX1R17PVxQoZjd6Fy0rL1Nq169SSJYvV3Llz1ZHDR5i8qMgoFRUdxST27tNbDRo0SPXr10/ldM4xbzrwVfhUdEx0cOSdSYDAcEiVr8oVwcEDB/Xjf35cn3P2Oah+nZIQn6BHjRylF3+6RBPpTgKSlJVPU5OwEciQI2H/vv367jvvdglq3qy5TkxI1OlpGbpZUjOd0jxFt2ndho9xsXE6OiqGn2vfrr1+829v6pKiEk7HbRQ7ryYkYSVQtA+ad8fYO1zyQByIwjE2Ota9L78lJSbz73KvZUZL/cH7szWNlZxewPyaiISdQHS/Jx5/wiUDxED75Do7K1sPvHKgvmrQv+lePXq590EsiIugYRnX+H3H9p0mYSftGnk2AQl7F966Zau+oNcFTEJ8XDx3V5zTpKFvv+12/fHCj1lDvzv6nV6zeo0e9+Q4JlWeAdk4gsinJzzNXfn/TBcuLSnVzz37nEteq5atXGKefOIv+lDuYe2rqHQeNigsKNQLPlyo22W342dBOMZEnF94wYX6651fu+nXyLMJSFgJPHr4qL76qqu58hjbMLPiHJqH32zYRKLbv/ziy/wsRLp8i/QWTK6MrQHz/Z4lPJ6IsftOnjypDhw4wOew30pLSxXNtGrUqFGqZauWfF8QFWWyJqpi42LV4CGDVf9+/flWQUEBHwuLClXuwYOKysnXTRHhc+UI+URgcUkJn5f7yokbrc477zzVpWsXJrnSV8W/ydFGq1atVJvMNnyO94CysjImsbLSx0RTi/P9WhFGD6O+CCuBpNOkeRXmykF0dLSKiHCygdbpSq0iI5ya4twmJcLcpwnEOdJ1BaVHncW5DiacZWCnH6gBcO+0DVMHwkog/NlmzZrxOVw1AK7b0aNH+NxPQ8y5dM/iomKVn5/P56KBILB58+YqMpKKKe96OHQJ8HJrrm3S/RoApySSf0OJDA+BJt+09DSVmZXJ53FxcYpmYrVx80a1cOFCVXDKGdekEtA+BA+ioqkI9P7qNavVhg0b+DeaifkI8jq076BiYmL4mlFbHeW+IYYh55a4RJnn3bHYIFgiw0MgCkdISkxSVw26is+rqqpUTLRT8SlTpqilS5ZyFAbPgjiJvIDIjRs38jNHSFPJhFGRplJnnXUWR2o4fVMnb+UCdWukWVxUok6dPKWKCoucfA3cvOU1nOIepRMordMhPNEYyZdSWrNmjRo9erTaum2rIu+Cb2NCaZvZVj3ym0fUoIGDVFbbLNbQvON5rHWvTn5VLfpkET8L7cPkgXfGjxuvHnzwQZ6lWWOpgkKgW1kr79zcXLVr1y61b+8+dTD3oDqZf1LFxsaqttnZqn27dtwYHTp24PQEkm6DAQJDEddLMIBh/MjDv0EtWWDT2f5v78t765+P+rm+5eZb9OBrB7MfLL8h0BAZEek+99Wmr0yqBG9+Vp5HDh3Rs96ZpYddP0xntsly07MFNimZSfr5557X3+z5pjqNECUsBLqGLkCn27Zu00MGD3ELn5qSyh4GdRK/SonA6IbRLBEZ+M+IyJSXlZtECXZeVnZ7v9mn773nXs5D0kOjoOHg0SBtcQ/xG8pw7TXX6s9WfO4a836NEqSETKArgBwJ69et19cNvc6tlERd5FoExEJD4frhGs9M/etUv3AW0hXy+Npg967d+tZf3uaXHoiECHlIFwTa2g3p2b2nXr5suX/ZGyBhIVAq5vVz0QXvueseP+1AhSRC4yW0T+8+esZbM3RRYbFJgeDJg68JcA2hefIuGgJp2ul5BVpoR3z69umrd329i9Nz0w5SwqaBfgTinjki6jJ/3nwe7zA+YSxCRaAhIBNd9+KLLtETnprAXZ8rIjBpS/qSLuKEb73xFmsYiABxSFeIQWDixn+/kcNqD9z/gP5Jl5+4AQo0JrQR55Df/efvNE02TsJWfvWV8HVhEqkkji4R5pCfl6/fe/c9N0IDIcNbT5s6jQd1v/EOwHsigBwJB/Yf0Ff0vYLTkK4qad55x1161cpVOu/4CZ7QIIgrvvjCS/qsjmfxM2hACeDmdMrh5+30/fI+jYSVQBGQx9qIawvQsM45nd3KkmnjFF4gz1tpedMA/rn8n7wcgDTQIDK2jb51NE8qgYAxFVormggCJVqEEBxCcX7wlqEWCY8h7QEMU/Z7xeg1h4oKn3NiAIO5qtIKLIg55jXLzPuAGN6I/AD5J/LJHatSl11ymRozZgzZee2d5yVreh7n8YnxasjQIRwZAmBriu89b948NrobgkYhUMAGqlX5qqrKalIJ8HHF62DgJxEDPG+/U1Jaqr744gs6Vkd9gAEDBqhu3bvxuQvzWqVpJLiGI0aMUK1bteaGg7cE5OYeUgWFjqsZLBqHQIsA1iajUTHk2pHiOxcERGlwzwYqC7GJsz0FhLZEk2nS4CN1RdWJ3D54NwKbdAZdIjLUsmVLlZGewWvTov2IDok2ssYGgUbVQC+KS4r9gqMIfXHLyy2qA4ILEPFPAZuMqKhoIsKJ9BDFfAShhQUFrkZ5weEzJEWCZyp8FU6YzaTvo0aRhvX2mtMhLASKttRodYBu0SyrPpz/ofrg/Q/Ud999Z35Q6tjxY2rO7Dlq1sxZiiYYVVpcan4xcOrnh5iYaNW5c2dz5cBXWaE2f7WZfV+BrbUCBBW2bt3KXTYqKsotb3x8vEpISODzoEGJBJxdghU/04UAs2TL5i168quTeRlTZjzMmLD/YHp4feTx48brL9es1QWnCkwqBMnDALPps5OedV0zmEKw/zAbvzvr3epdDQZ2mbBA1e38bvwe8hfz56EHH2JzhyH51VNCJ1BgndOMpl+b/pqfAQvSICANlYffC7HdOAjsMix1frv3W5NaNRA0mDJ5imtL4j00jPjQcM+wbOrnyQBUNtiasBElHxjwaEy8P3f2XPMgPSqKIPU7jYRHAy3kHszVf/z9H/20CwWF2ya2l5AJcuWe7adCxtw+xnWzgE0bN+tf3fsrV/Pgugnx0CTxQtBok56ZpJctWaa3b9vOGv2319/QI4aPcNOW3gAZPmy4E50hCHlnnEDOkAC3TVoZFQJpKCyIEsKk4LaAAPwG0uWI+9dfdz0T9+H8BRyKwj1oW2JCkt/7yAvumaQPkrFYf3bns3XHDp1cnxvPiR+Oa7wzb+48dwtJMMSJNIjAGq1EwNj0wvMvuJUS4qBZONqtjkpAg0TrcISg4nhWNAvSp3df6taO90LmOb2bxufRUbH63K7n6datHI8E79kkBhLkCcE5GgL+N4YbF1KfICR0AgE6Lvp4ERODwkmXAiHS5SAIGvz+0T9wxOXvb/+dCf/ZDT/jiUCeEaJtwslYIK2sJvXszl30Ky9N1vv3HdQLPvyIu231s46mgSDvsCCCBnrm6YnsL7swdQtWQuvCBggtIfqBwsnshkJKGAvd6bE/PMb7ZjDDStQG/icmC4xR2MaBZ1F5aAmOQkBigqM10MBrrx6iP1m0WJcWO8EHX0UVx/WuufoaDlXhudoE5ZKQWaiaJxLamogxtVatXMUu0uEjh3k5E0ZqWXkZ/9Y5p7Oa+MxE1e+Kfio9I53veYGFdqyNTJz4jJo5aybfo67Ia8IREVHkNVSo1JR0dd+v71O/uPlm1eUcsgPJgtWVVAQqQyUZx/n5J8hH3qRmz/5A7dmzhxeT4F3AVcS6SGpqqho8eIjq27ePateunbsuwjtgqbwNhpfR+gh3XwPYT/Z2NrSymBUYrLFWESg0HwgbN2zUl158Kb+LNOyZfMAVA8mO222ehObRHyQDZZbk6IjYHnZ/7dm9hyPWmMmxqQnhNLscfsNQCNLwLmyAnaiDBg7iSmK8A2kykN904y94ZhbIbFcDJj0YwTC8QRy6r9MYIDGCbLwL9GcrVrrPMoGImPnoaJXHRaB7NvC7PCPnDZCQXbmjR4+yAFgA560Y5CLReKRGjrxBpaSk8G8Auje6KwROu4SaZChAt8K68mWXXcYhqpKSEpVAblZ8bILaQi7Yli1bKH3qtwTx1EwMwOipJV6Ye5IvyujccA4NRWgEUuZ5J/J4vAF4CwYBIaaOnTqprl26Vu8qoGfhn8Kx5+gHnfv5q6Yi2NnQunVrPqdq8g59POerLFP5J04Q+Q6BLnGCuq4pbSbM5FEj7xAQsgYWFBSqU6dOKRqzqFJOclQ8dvoTEslBr62cuC9iKgZQx1DZ2dnmyh++ykqeMBjedK00/GCRZh/DhZAJBFHQEkREaFAwdxXH2kRbAgIVMwLtkC4VSd1cos0ACJXfooyGM5xbRGj173Jk4JTE714joMEE8vhFjYkAZXqaY56gsjAdIMfzjrubLW3U6D50SmOxs1+FAG0+dPgQnwN2yB87v2I8JodslQO86ULCrXFeNJhAqXBWZpZq0aIFnyPMjokC497Xu75WS5Yu4U0+jED1MPd4hxZAbbKR7MFt27bxJYaF8opy7rrZWe15XIXGu7DShKa52mbnhfNAAsgxBDS8C5uyZhB5PXv1ci4ICJVLRWbMmOGSUSdMWgf2H1BvvPmG2vftPiYPM3BpWQlPINgU1OWcc6jhnGcZ9B4UkKPXRkAK2Xu8ne5EXj4vFvHuLJNHQIRAZNSfHvvTn8x5UABJ6B4xsTEqNiZWfbTwIw7ZYyb2+XxUXs1jWQF1yR7dehDRGU5BRQDriMq+/vpr6qWXXuJ38Q0dvBmcA2mpGeqiCy9U2W3b0ZhLLAohorw0pBw+fFhtWL9BLVu2jMuzeMlitWLFCkUGNaV/gsuWnJzM0WjOm9LgetSY0oMAJVDDODytAHIkwJ8d0H8AqsRGMAxgOxiAb+Cwlss7AKz3AERxEClGVFiCEXZEJSEeaTnhKwQRXn7xVfK9jzkeiAGCAnM+mMMxP6w1y7u2wMBHSAxfA2Bh3q8cUq8GSMMJtAAXCQEBibuBPHgSNhHYFfDwQw/rt2e8rVf8zwq98ouV+v333tdPjX9Kd+/Ww6+iOOJd25WLi3EaBFGZ6386XK/7cgOTeGD/QQ60eiM6ELyPBkC5IiOqo0JDh/xUr/zcWtAHAtWzHtIwAiEewGW779f3u4VENIZGJfco90EsAp0gTWJzIuJD4x3/cJYjEpWBdDu/h5761+n61l+O9nsGESCQiQZAGnExWH9JpvvpHM2R5y7oeZH+4rOVjitoIVgfueEEQiwgU3RFhMilkOjKUhEQB42wtUoCBiIgTkiEgIjH/4wNQg8R2fIxYqR7Hh/rLArhXWiZt0G8EhUZq1ukt3KJHHjlVXr7th2mBgSqU7ABhgZPIi7M+IuBOCU1VZ177rk8mO/YuYPXXxPjE3lmTkxM5LASps1oGsQxSWBQj0+I5/vwfWHzIR08j90DEydOUneMvUP1HzCAt+du2rhZncg/TlUnnabpuNznLINyuoSiYselzOmUo4YOHapuuukm1bNHL5rIClVJcakqLS/m2T2N7NbCogL1zd49KjEhiXzvS91F+aAnlECsBiuu2hv8a8e/uDsTCTW0QMZG0Ujv7xBshcOWONlkCVSUV3E05uab/kM3T3YCtdFRcaR1/rtPf/vIb3kdBeErBGyJPI5cv/7aG7pjhxx+LjIi2k0jO6sd71YVuHWx6leXhJdAXBtgZgQJ2E4LItGdUWAIuiq6m0wYEFxjWRJfaPLeaJMWxih3nKJJY8/uvXrck0+5k0pK81ROD+fYcMkzbAAggv3uzPdd4tJSW1C3d/JHeN9eFz7jBIp4SUT8D8uc+Iwf5gM+OrTHOGgh1kkQkMXeQSzE19hmBnNFxGD+vAW6VQtnMSk+ziESoXoEZGtU3nrvVH6hHjPa+RAc46c0AkwwlFPwvRFoi3e7L8iEZmHhHIWGYMbE4lIN0gRIi5KBBkoEuqykQk965jnuhpIOBItVsqMBBFSLk4bI3NnzdWabbJrYkljwLvYsInrtgvKpL4kNd+XqAo3D8l2cABEbeCOYNAQx0TSgp6apuPjqXVVMh30kYFznXXB0xEagr7Z8RZOOjy4dv46GAv5YkWOP9J4ELFjoHdITFngtKENGRjp/SYr8AZ+veqcWI4h5pHEIRGGlEBYR1GbQeHPlgBrROZHbeE9u0bN4h2FKip1ZiaYRtHLCZdgs6aMZn2dQvG8TQO/xbeNDk9qocnIRYygdUkm+hzTdfADr9HRoHAIBKoREbOoCKsSgR91QP4gzRHM4ykoG4ayLL7mYtU4An/nLL9eqo0ecpQUGvYM0sOom7yPIsH79OrVv317+nzUwswCYMO7uLMrW28h1ofEIBDzlYA20W9oDN6xFYOJsmNfQKLAJmyU34+v0tAw+Lly4QH3y6Sc1vovjf9pjktqxY6eaMnmKu+QqZenTpw/ZsNVrN8GgcQkU1NGgXAnrdw5LWeSJNso2XaBt27a8XRfAtmFo48lTJ9WECRPUokWLqmOQBmWlZbz/cPz4cWr7zu18Dx9Glpc724P79+9fY39gjQasBaF7IjaQp1cI6FpYOP/440VqAWkKxiwAx2TSJIT+MQFAq9xQEwnGNBEQHWkqBa8Glf908aecRlJSMqdx9NhR9flnn/P3yVgdRL57du9R8+fPV5PIq1nw0QJ+P6V5Cq/lVNEYeOWAK9Xdd9/tBIVNedGg9fZIqHX9puWwCQFRGmy7wIeF2N4BD4TocP1eZI9r7NU7/7zzeU+hvY5smxLuuQEWzmGkSxrYWGR/EQU/Gv8FyQ5vwWOBwS5hM9JcPfMfM520CZJHfU0YSOMQSIBNNn3adI68SAUgIA4FR0W8zj8q+MD9D7ArKGmhMrApIVJRAOdLFy91/0eNBBQkpOYV3AfBdsPhX7HYDWbnKeenk/AQCFjX2LjzysuvuO4bjtAIiF0pCEiDqwdS4ZngHiI63m/YcPSrGAHGuU2iLdB2NJBEguzfQCZ2wXp3Z9l5ufmcRsJHoAEqhf97hW4phQU5qJBUANpi+8a4hnbYGomggF1BIdCtnAXs+kI0Wv4DUm2CPPAvpeA2cnTcAtKVr6uCITAsX6xTGq69duDbA+q+++9Ts+fMVtTyvLUDAzbWjTPbZKl+/fqq3r1706yXyF+XL1u2VK1dt5bTIbL5WFRcyP9v4Z1/vKOGjRjG90AB8gG8tiFsRyyj4gumxZ8u5oUsfAEgXyNhxsbOfsy2l19+uerQoaNrMsFOxIYA2S0RNITJkMQAm4Pg22KQRtfEwI4sIHDYEZ3BmIPnoKkIVyGA4P03eRLmwuZL7xjlpx0e4Dekjf2KSBf/mwt7pOHnYkxGnn6QdEKQsBKIbiEfWWPskW7aoX0HHqtQuUDA9jMhEcSDRJzjs9XVq1ZX50FHb/dyrz3g+/WBSaehElZDOi8vjyPRAL4eki+H7rrrLu469j97YIAmQpvM1urW225V3bv14Gi0GLh5eSfUTvIeqKB8bQP3IFQH/9+ZeufUPbfFC/RakQYgPASagh07dtzdD0PNo0rLShXZd2rgwIH8tSRgb2+z0bVrV144B8TQLikp5i+bQGogyJjFJMKHNn404Dee1UaSkCrSAISHQFOw4uIit/JSaWxVw/4Zgb29jbXIEBkdHaMys7L4nO7ykeZcDl/Z38B5JxA7PRE/wqxn/chysggZYe3C+OaMnXcCZmAAewcxCwuwPY3dJKqAuGkASMDGIufceZfGQ96tRaMNX9tgoixIl3YbRUiypREQVgIz22S6q1vwbWGKrFqzWq1bt57MBdEirLpRbShn5sWU4GBuLoeZAKzYAfHxCRz89Au4emBrnsiZRHgINK2L/53Vo3sPPseSJT5NxY/Tpk3jyQCIjsHnrE4lJchZWFCs5s6Zq1as+IyvEasDkpOTVKeOnficUU9uziiJpPI1puagxQCWPP4vAew4eB62HTh2zJ16w/pNurzMfyvA8WP5+sUXXnHXJ7AVQ7wWeA0BV9kCleF7krB4IggdYZcWgG+Dx44dy3sDgebJKepUIcY2rS6/tI+65ZZbOJ4XExur8o4f58/3p0+fzovkiQnNqOtHqZOn8nnBe+rU/1YjR44MvGbSVOBltMFigBAWNhDJ8mXLjFbk48q2jGoRjRPBMqOs2ULG3D6WP2/1Q6B8v2cJG4G2R4AgwKP/9agVMMCXm815HRZEiWCzEI7paS3JA6nepXDd0GF6/doNTmICK6+mJI1CIAAfFvG29DQnKgOB1oFIaCTIgwip8swNI0bxWFlRjoVcs75s5dPUJPgxMNDTMEnI9uJVOFgrZm4vIvtv6dLlNAtPV2u+XKMOH8l1fvCASOR/Vov/6TJ8xHBnKy8l5ePNRpQc7MUzbJ7UF+EhEHWDbWeMYi+wW3/jpk1kD65Vy5cvJ/fsGN9PTkpS3Xv04FWxnj17csgpKTmRf2NQY8Dw9v6bzqaE8BAIIJlABOIWCTQUbh7WYhEswE4AzK5w4bCZ3F1DpmSoTM65QVPVPiB8BNYCGikcAurDQQDygB8XgQ0ASEFwQb7LxbWrcUAtxAl+mASGWub6NAvyMM8xqU2YqNoQ5i4c6Eci5YfHS70RxukN5NUmP1Yo9b/WZ3Wtgs372gAAAABJRU5ErkJggg==" parent="NtcgmnStBljslIBxjJo6-60" vertex="1">
          <mxGeometry x="245.45454545454544" y="108.18181818181816" width="58.44155844155844" height="70.12987012987013" as="geometry" />
        </mxCell>
        <mxCell id="NtcgmnStBljslIBxjJo6-48" style="edgeStyle=orthogonalEdgeStyle;rounded=0;orthogonalLoop=1;jettySize=auto;html=1;exitX=0;exitY=0.5;exitDx=0;exitDy=0;entryX=1;entryY=0.5;entryDx=0;entryDy=0;" parent="NtcgmnStBljslIBxjJo6-60" source="NtcgmnStBljslIBxjJo6-53" target="NtcgmnStBljslIBxjJo6-45" edge="1">
          <mxGeometry relative="1" as="geometry" />
        </mxCell>
        <mxCell id="NtcgmnStBljslIBxjJo6-47" value="&lt;div style=&quot;&quot;&gt;&lt;div style=&quot;&quot;&gt;CONSUMER&lt;/div&gt;&lt;/div&gt;" style="rounded=0;whiteSpace=wrap;html=1;spacingRight=20;spacingLeft=20;" parent="NtcgmnStBljslIBxjJo6-60" vertex="1">
          <mxGeometry x="514.2857142857142" y="177.72727272727272" width="140.25974025974025" height="108.18181818181817" as="geometry" />
        </mxCell>
        <mxCell id="NtcgmnStBljslIBxjJo6-49" value="topic" style="text;html=1;strokeColor=none;fillColor=none;align=center;verticalAlign=middle;whiteSpace=wrap;rounded=0;" parent="NtcgmnStBljslIBxjJo6-60" vertex="1">
          <mxGeometry x="163.63636363636363" y="131.36363636363635" width="70.12987012987013" height="46.36363636363636" as="geometry" />
        </mxCell>
        <mxCell id="NtcgmnStBljslIBxjJo6-51" value="topic" style="text;html=1;strokeColor=none;fillColor=none;align=center;verticalAlign=middle;whiteSpace=wrap;rounded=0;" parent="NtcgmnStBljslIBxjJo6-60" vertex="1">
          <mxGeometry x="385.7142857142857" y="30.909090909090907" width="70.12987012987013" height="46.36363636363636" as="geometry" />
        </mxCell>
        <mxCell id="NtcgmnStBljslIBxjJo6-43" style="edgeStyle=orthogonalEdgeStyle;rounded=0;orthogonalLoop=1;jettySize=auto;html=1;exitX=0;exitY=0.5;exitDx=0;exitDy=0;entryX=1;entryY=0.25;entryDx=0;entryDy=0;" parent="NtcgmnStBljslIBxjJo6-60" source="NtcgmnStBljslIBxjJo6-51" target="NtcgmnStBljslIBxjJo6-45" edge="1">
          <mxGeometry relative="1" as="geometry">
            <mxPoint x="880.1298701298701" y="154.54545454545453" as="targetPoint" />
          </mxGeometry>
        </mxCell>
        <mxCell id="NtcgmnStBljslIBxjJo6-53" value="topic" style="text;html=1;strokeColor=none;fillColor=none;align=center;verticalAlign=middle;whiteSpace=wrap;rounded=0;" parent="NtcgmnStBljslIBxjJo6-60" vertex="1">
          <mxGeometry x="385.7142857142857" y="200.9090909090909" width="70.12987012987013" height="46.36363636363636" as="geometry" />
        </mxCell>
        <mxCell id="NtcgmnStBljslIBxjJo6-50" value="" style="edgeStyle=orthogonalEdgeStyle;rounded=0;orthogonalLoop=1;jettySize=auto;html=1;exitX=1;exitY=0.5;exitDx=0;exitDy=0;" parent="NtcgmnStBljslIBxjJo6-60" source="NtcgmnStBljslIBxjJo6-42" target="NtcgmnStBljslIBxjJo6-49" edge="1">
          <mxGeometry relative="1" as="geometry">
            <mxPoint x="151.94805194805195" y="378.6363636363636" as="sourcePoint" />
            <mxPoint x="245.45454545454544" y="378.6363636363636" as="targetPoint" />
          </mxGeometry>
        </mxCell>
        <mxCell id="NtcgmnStBljslIBxjJo6-46" style="edgeStyle=orthogonalEdgeStyle;rounded=0;orthogonalLoop=1;jettySize=auto;html=1;exitX=1;exitY=0.5;exitDx=0;exitDy=0;" parent="NtcgmnStBljslIBxjJo6-60" source="NtcgmnStBljslIBxjJo6-49" target="NtcgmnStBljslIBxjJo6-45" edge="1">
          <mxGeometry relative="1" as="geometry" />
        </mxCell>
        <mxCell id="NtcgmnStBljslIBxjJo6-52" value="" style="edgeStyle=orthogonalEdgeStyle;rounded=0;orthogonalLoop=1;jettySize=auto;html=1;exitX=0;exitY=0.5;exitDx=0;exitDy=0;entryX=1;entryY=0.25;entryDx=0;entryDy=0;" parent="NtcgmnStBljslIBxjJo6-60" source="NtcgmnStBljslIBxjJo6-44" target="NtcgmnStBljslIBxjJo6-51" edge="1">
          <mxGeometry relative="1" as="geometry">
            <mxPoint x="303.8961038961039" y="355.45454545454544" as="targetPoint" />
            <mxPoint x="514.2857142857142" y="278.1818181818182" as="sourcePoint" />
          </mxGeometry>
        </mxCell>
        <mxCell id="NtcgmnStBljslIBxjJo6-54" value="" style="edgeStyle=orthogonalEdgeStyle;rounded=0;orthogonalLoop=1;jettySize=auto;html=1;exitX=0;exitY=0.5;exitDx=0;exitDy=0;entryX=1;entryY=0.5;entryDx=0;entryDy=0;" parent="NtcgmnStBljslIBxjJo6-60" source="NtcgmnStBljslIBxjJo6-47" target="NtcgmnStBljslIBxjJo6-53" edge="1">
          <mxGeometry relative="1" as="geometry">
            <mxPoint x="514.2857142857142" y="455.9090909090909" as="sourcePoint" />
            <mxPoint x="303.8961038961039" y="378.6363636363636" as="targetPoint" />
          </mxGeometry>
        </mxCell>
        <mxCell id="NtcgmnStBljslIBxjJo6-61" value="&lt;u&gt;&lt;i&gt;&lt;b&gt;Exemplo de alicacao da logica do topic&lt;br&gt;&lt;/b&gt;&lt;/i&gt;&lt;/u&gt;Topics de vendas; vendas que acontecem no ecormece&lt;br&gt;&lt;br style=&quot;border-color: var(--border-color);&quot;&gt;&lt;span style=&quot;&quot;&gt;O QUE ACONTECE? O kafka armazena que parte dos dados em uma particao.&lt;br&gt;&lt;/span&gt;&lt;br style=&quot;border-color: var(--border-color);&quot;&gt;&lt;span style=&quot;&quot;&gt;&lt;br&gt;&lt;br&gt;&lt;br&gt;&lt;br&gt;&lt;/span&gt;" style="text;html=1;strokeColor=none;fillColor=none;align=left;verticalAlign=middle;whiteSpace=wrap;rounded=0;" parent="NtcgmnStBljslIBxjJo6-55" vertex="1">
          <mxGeometry x="10" y="430" width="430" height="170" as="geometry" />
        </mxCell>
        <mxCell id="NtcgmnStBljslIBxjJo6-62" value="" style="endArrow=none;dashed=1;html=1;dashPattern=1 3;strokeWidth=2;rounded=0;" parent="NtcgmnStBljslIBxjJo6-55" edge="1">
          <mxGeometry width="50" height="50" relative="1" as="geometry">
            <mxPoint y="420" as="sourcePoint" />
            <mxPoint x="900" y="420" as="targetPoint" />
          </mxGeometry>
        </mxCell>
        <mxCell id="4AT3hym7QcRthu2yqRaI-60" style="edgeStyle=orthogonalEdgeStyle;rounded=0;orthogonalLoop=1;jettySize=auto;html=1;exitX=0.5;exitY=1;exitDx=0;exitDy=0;" parent="NtcgmnStBljslIBxjJo6-55" source="NtcgmnStBljslIBxjJo6-49" target="NtcgmnStBljslIBxjJo6-61" edge="1">
          <mxGeometry relative="1" as="geometry" />
        </mxCell>
        <mxCell id="4AT3hym7QcRthu2yqRaI-73" value="" style="group" parent="NtcgmnStBljslIBxjJo6-55" vertex="1" connectable="0">
          <mxGeometry x="490" y="450" width="380" height="160" as="geometry" />
        </mxCell>
        <mxCell id="4AT3hym7QcRthu2yqRaI-59" value="&lt;div style=&quot;&quot;&gt;&lt;div style=&quot;&quot;&gt;TOPIC:&lt;/div&gt;&lt;div style=&quot;&quot;&gt;TOPICO de Sales&lt;/div&gt;&lt;/div&gt;" style="rounded=0;whiteSpace=wrap;html=1;spacingRight=20;spacingLeft=20;" parent="4AT3hym7QcRthu2yqRaI-73" vertex="1">
          <mxGeometry y="66.66666666666667" width="105.55555555555556" height="53.333333333333336" as="geometry" />
        </mxCell>
        <mxCell id="4AT3hym7QcRthu2yqRaI-61" value="&lt;div style=&quot;&quot;&gt;&lt;div style=&quot;&quot;&gt;Particao 1&lt;/div&gt;&lt;/div&gt;" style="rounded=0;whiteSpace=wrap;html=1;spacingRight=20;spacingLeft=20;" parent="4AT3hym7QcRthu2yqRaI-73" vertex="1">
          <mxGeometry x="161.85185185185185" y="26.666666666666668" width="70.37037037037038" height="26.666666666666668" as="geometry" />
        </mxCell>
        <mxCell id="4AT3hym7QcRthu2yqRaI-64" style="edgeStyle=orthogonalEdgeStyle;rounded=0;orthogonalLoop=1;jettySize=auto;html=1;exitX=1;exitY=0.5;exitDx=0;exitDy=0;entryX=0;entryY=0.5;entryDx=0;entryDy=0;" parent="4AT3hym7QcRthu2yqRaI-73" source="4AT3hym7QcRthu2yqRaI-59" target="4AT3hym7QcRthu2yqRaI-61" edge="1">
          <mxGeometry relative="1" as="geometry" />
        </mxCell>
        <mxCell id="4AT3hym7QcRthu2yqRaI-62" value="&lt;div style=&quot;&quot;&gt;&lt;div style=&quot;&quot;&gt;Particao 2&lt;/div&gt;&lt;/div&gt;" style="rounded=0;whiteSpace=wrap;html=1;spacingRight=20;spacingLeft=20;" parent="4AT3hym7QcRthu2yqRaI-73" vertex="1">
          <mxGeometry x="161.85185185185185" y="80" width="70.37037037037038" height="26.666666666666668" as="geometry" />
        </mxCell>
        <mxCell id="4AT3hym7QcRthu2yqRaI-66" style="edgeStyle=orthogonalEdgeStyle;rounded=0;orthogonalLoop=1;jettySize=auto;html=1;exitX=1;exitY=0.5;exitDx=0;exitDy=0;entryX=0;entryY=0.5;entryDx=0;entryDy=0;" parent="4AT3hym7QcRthu2yqRaI-73" source="4AT3hym7QcRthu2yqRaI-59" target="4AT3hym7QcRthu2yqRaI-62" edge="1">
          <mxGeometry relative="1" as="geometry" />
        </mxCell>
        <mxCell id="4AT3hym7QcRthu2yqRaI-63" value="&lt;div style=&quot;&quot;&gt;&lt;div style=&quot;&quot;&gt;Particao 3&lt;/div&gt;&lt;/div&gt;" style="rounded=0;whiteSpace=wrap;html=1;spacingRight=20;spacingLeft=20;" parent="4AT3hym7QcRthu2yqRaI-73" vertex="1">
          <mxGeometry x="161.85185185185185" y="133.33333333333334" width="70.37037037037038" height="26.666666666666668" as="geometry" />
        </mxCell>
        <mxCell id="4AT3hym7QcRthu2yqRaI-65" style="edgeStyle=orthogonalEdgeStyle;rounded=0;orthogonalLoop=1;jettySize=auto;html=1;exitX=1;exitY=0.5;exitDx=0;exitDy=0;entryX=0;entryY=0.5;entryDx=0;entryDy=0;" parent="4AT3hym7QcRthu2yqRaI-73" source="4AT3hym7QcRthu2yqRaI-59" target="4AT3hym7QcRthu2yqRaI-63" edge="1">
          <mxGeometry relative="1" as="geometry" />
        </mxCell>
        <mxCell id="4AT3hym7QcRthu2yqRaI-67" value="&lt;div style=&quot;&quot;&gt;&lt;div style=&quot;&quot;&gt;&lt;br&gt;&lt;/div&gt;&lt;/div&gt;" style="rounded=0;whiteSpace=wrap;html=1;spacingRight=20;spacingLeft=20;" parent="4AT3hym7QcRthu2yqRaI-73" vertex="1">
          <mxGeometry x="270.9259259259259" width="109.07407407407409" height="140" as="geometry" />
        </mxCell>
        <mxCell id="4AT3hym7QcRthu2yqRaI-72" style="edgeStyle=orthogonalEdgeStyle;rounded=0;orthogonalLoop=1;jettySize=auto;html=1;exitX=1;exitY=0.5;exitDx=0;exitDy=0;entryX=0;entryY=0.25;entryDx=0;entryDy=0;" parent="4AT3hym7QcRthu2yqRaI-73" source="4AT3hym7QcRthu2yqRaI-61" target="4AT3hym7QcRthu2yqRaI-67" edge="1">
          <mxGeometry relative="1" as="geometry" />
        </mxCell>
        <mxCell id="4AT3hym7QcRthu2yqRaI-68" value="&lt;div style=&quot;&quot;&gt;&lt;div style=&quot;&quot;&gt;Segment1&lt;/div&gt;&lt;/div&gt;" style="rounded=0;whiteSpace=wrap;html=1;spacingRight=20;spacingLeft=20;" parent="4AT3hym7QcRthu2yqRaI-73" vertex="1">
          <mxGeometry x="288.51851851851853" y="6.666666666666667" width="77.4074074074074" height="26.666666666666668" as="geometry" />
        </mxCell>
        <mxCell id="4AT3hym7QcRthu2yqRaI-69" value="&lt;div style=&quot;&quot;&gt;&lt;div style=&quot;&quot;&gt;Segmento&lt;span style=&quot;background-color: initial;&quot;&gt;&amp;nbsp;&lt;/span&gt;2&lt;/div&gt;&lt;/div&gt;" style="rounded=0;whiteSpace=wrap;html=1;spacingRight=20;spacingLeft=20;" parent="4AT3hym7QcRthu2yqRaI-73" vertex="1">
          <mxGeometry x="288.51851851851853" y="40" width="77.4074074074074" height="26.666666666666668" as="geometry" />
        </mxCell>
        <mxCell id="4AT3hym7QcRthu2yqRaI-70" value="&lt;div style=&quot;&quot;&gt;&lt;div style=&quot;&quot;&gt;Segmento&lt;span style=&quot;background-color: initial;&quot;&gt;&amp;nbsp;&lt;/span&gt;3&lt;/div&gt;&lt;/div&gt;" style="rounded=0;whiteSpace=wrap;html=1;spacingRight=20;spacingLeft=20;" parent="4AT3hym7QcRthu2yqRaI-73" vertex="1">
          <mxGeometry x="288.51851851851853" y="73.33333333333333" width="77.4074074074074" height="26.666666666666668" as="geometry" />
        </mxCell>
        <mxCell id="4AT3hym7QcRthu2yqRaI-71" value="&lt;div style=&quot;&quot;&gt;&lt;div style=&quot;&quot;&gt;Segmento&lt;span style=&quot;background-color: initial;&quot;&gt;&amp;nbsp;4&lt;/span&gt;&lt;/div&gt;&lt;/div&gt;" style="rounded=0;whiteSpace=wrap;html=1;spacingRight=20;spacingLeft=20;" parent="4AT3hym7QcRthu2yqRaI-73" vertex="1">
          <mxGeometry x="288.51851851851853" y="106.66666666666667" width="77.4074074074074" height="26.666666666666668" as="geometry" />
        </mxCell>
        <mxCell id="4AT3hym7QcRthu2yqRaI-76" value="&lt;div style=&quot;text-align: justify;&quot;&gt;&lt;span style=&quot;background-color: initial;&quot;&gt;2 - SEGMENTO:&lt;/span&gt;&lt;/div&gt;&lt;div style=&quot;text-align: justify;&quot;&gt;&lt;span style=&quot;background-color: initial;&quot;&gt;O QUE É? São arquivos (logs) que são gerados conforme as informacoes vao chegando&amp;nbsp; pela particao que os vai gerando.&lt;/span&gt;&lt;/div&gt;&lt;div style=&quot;text-align: justify;&quot;&gt;&lt;span style=&quot;background-color: initial;&quot;&gt;&lt;br&gt;&lt;/span&gt;&lt;/div&gt;&lt;div style=&quot;text-align: justify;&quot;&gt;&lt;span style=&quot;background-color: initial;&quot;&gt;é no segmento que eu defino o tempo de reducao; por default é 1 semana&lt;/span&gt;&lt;/div&gt;" style="rounded=0;whiteSpace=wrap;html=1;" parent="NtcgmnStBljslIBxjJo6-55" vertex="1">
          <mxGeometry x="10" y="670" width="440" height="80" as="geometry" />
        </mxCell>
        <mxCell id="4AT3hym7QcRthu2yqRaI-77" style="edgeStyle=orthogonalEdgeStyle;rounded=0;orthogonalLoop=1;jettySize=auto;html=1;exitX=1;exitY=0.5;exitDx=0;exitDy=0;entryX=1;entryY=0.5;entryDx=0;entryDy=0;dashed=1;" parent="NtcgmnStBljslIBxjJo6-55" source="4AT3hym7QcRthu2yqRaI-68" target="4AT3hym7QcRthu2yqRaI-76" edge="1">
          <mxGeometry relative="1" as="geometry" />
        </mxCell>
        <mxCell id="4AT3hym7QcRthu2yqRaI-113" value="&lt;div style=&quot;text-align: justify;&quot;&gt;1 - Partiçoes:&lt;/div&gt;&lt;div style=&quot;text-align: justify;&quot;&gt;O que é? é a replicaçao para o tipo de dado que está vindo pelo tópico, para manter a confiabilidade e escalabilidade PORQUE? elas n ficam necessariamente no mesmo broker.&lt;/div&gt;&lt;div style=&quot;text-align: justify;&quot;&gt;&lt;br&gt;&lt;/div&gt;&lt;div style=&quot;text-align: justify;&quot;&gt;Toda vez que for criar um topico vai escolher a quantidade de particoes, isso vai facilitar e deixar muito mais rapido a leitura desses topicos de forma paralelizada, além da escalabilidade e que elas nao ficam necessariamente num mesmo broker&lt;br&gt;&lt;/div&gt;" style="rounded=0;whiteSpace=wrap;html=1;" parent="NtcgmnStBljslIBxjJo6-55" vertex="1">
          <mxGeometry x="10" y="520" width="440" height="130" as="geometry" />
        </mxCell>
        <mxCell id="4AT3hym7QcRthu2yqRaI-114" style="edgeStyle=orthogonalEdgeStyle;rounded=0;orthogonalLoop=1;jettySize=auto;html=1;exitX=1;exitY=0.5;exitDx=0;exitDy=0;entryX=1.001;entryY=0.813;entryDx=0;entryDy=0;entryPerimeter=0;dashed=1;" parent="NtcgmnStBljslIBxjJo6-55" source="4AT3hym7QcRthu2yqRaI-62" target="4AT3hym7QcRthu2yqRaI-113" edge="1">
          <mxGeometry relative="1" as="geometry">
            <Array as="points">
              <mxPoint x="750" y="543" />
              <mxPoint x="750" y="626" />
            </Array>
          </mxGeometry>
        </mxCell>
        <mxCell id="4AT3hym7QcRthu2yqRaI-116" style="edgeStyle=orthogonalEdgeStyle;rounded=0;orthogonalLoop=1;jettySize=auto;html=1;exitX=0.5;exitY=1;exitDx=0;exitDy=0;entryX=0;entryY=0.5;entryDx=0;entryDy=0;dashed=1;" parent="1" source="4AT3hym7QcRthu2yqRaI-76" target="4AT3hym7QcRthu2yqRaI-115" edge="1">
          <mxGeometry relative="1" as="geometry" />
        </mxCell>
        <mxCell id="4AT3hym7QcRthu2yqRaI-126" value="" style="group" parent="1" vertex="1" connectable="0">
          <mxGeometry x="-330" y="2230" width="830" height="580" as="geometry" />
        </mxCell>
        <mxCell id="4AT3hym7QcRthu2yqRaI-115" value="" style="rounded=0;whiteSpace=wrap;html=1;" parent="4AT3hym7QcRthu2yqRaI-126" vertex="1">
          <mxGeometry width="830" height="580" as="geometry" />
        </mxCell>
        <mxCell id="4AT3hym7QcRthu2yqRaI-127" value="" style="group" parent="4AT3hym7QcRthu2yqRaI-126" vertex="1" connectable="0">
          <mxGeometry x="10" width="533.5" height="220.00000000000003" as="geometry" />
        </mxCell>
        <mxCell id="4AT3hym7QcRthu2yqRaI-121" value="" style="rounded=1;whiteSpace=wrap;html=1;" parent="4AT3hym7QcRthu2yqRaI-127" vertex="1">
          <mxGeometry x="17.5" y="40.00000000000001" width="200" height="50" as="geometry" />
        </mxCell>
        <mxCell id="4AT3hym7QcRthu2yqRaI-117" value="0" style="rounded=1;whiteSpace=wrap;html=1;" parent="4AT3hym7QcRthu2yqRaI-127" vertex="1">
          <mxGeometry x="27.5" y="50" width="30" height="30.000000000000007" as="geometry" />
        </mxCell>
        <mxCell id="4AT3hym7QcRthu2yqRaI-118" value="1" style="rounded=1;whiteSpace=wrap;html=1;" parent="4AT3hym7QcRthu2yqRaI-127" vertex="1">
          <mxGeometry x="77.5" y="50" width="30" height="30.000000000000007" as="geometry" />
        </mxCell>
        <mxCell id="4AT3hym7QcRthu2yqRaI-119" value="2" style="rounded=1;whiteSpace=wrap;html=1;" parent="4AT3hym7QcRthu2yqRaI-127" vertex="1">
          <mxGeometry x="127.5" y="50" width="30" height="30.000000000000007" as="geometry" />
        </mxCell>
        <mxCell id="4AT3hym7QcRthu2yqRaI-120" value="3" style="rounded=1;whiteSpace=wrap;html=1;" parent="4AT3hym7QcRthu2yqRaI-127" vertex="1">
          <mxGeometry x="177.5" y="50" width="30" height="30.000000000000007" as="geometry" />
        </mxCell>
        <mxCell id="4AT3hym7QcRthu2yqRaI-122" value="LOG de um topic (segment)" style="text;html=1;strokeColor=none;fillColor=none;align=center;verticalAlign=middle;whiteSpace=wrap;rounded=0;" parent="4AT3hym7QcRthu2yqRaI-127" vertex="1">
          <mxGeometry width="185" height="30.000000000000007" as="geometry" />
        </mxCell>
        <mxCell id="4AT3hym7QcRthu2yqRaI-124" value="Essas caixinhas dentro de um segment sao os offsets, cada&amp;nbsp; um desses offset são uma mensagem do tópic&lt;br&gt;&lt;br&gt;Cada offset fica replicado&amp;nbsp; de acordo com a quantidade de partiçoes&lt;br&gt;&lt;br&gt;o Kafka consegue administrar o que cada aplicaçao esta lendo. ou seja elas podem ser assincronas na leitura cada uma consegue ler no seu tempo" style="rounded=1;whiteSpace=wrap;html=1;align=left;" parent="4AT3hym7QcRthu2yqRaI-127" vertex="1">
          <mxGeometry x="17.5" y="110.00000000000001" width="516" height="110.00000000000001" as="geometry" />
        </mxCell>
        <mxCell id="4AT3hym7QcRthu2yqRaI-125" style="edgeStyle=orthogonalEdgeStyle;rounded=0;orthogonalLoop=1;jettySize=auto;html=1;exitX=0.5;exitY=1;exitDx=0;exitDy=0;entryX=0;entryY=0.5;entryDx=0;entryDy=0;" parent="4AT3hym7QcRthu2yqRaI-127" source="4AT3hym7QcRthu2yqRaI-117" target="4AT3hym7QcRthu2yqRaI-124" edge="1">
          <mxGeometry relative="1" as="geometry" />
        </mxCell>
        <mxCell id="4AT3hym7QcRthu2yqRaI-128" value="Anatomia de um topic" style="text;html=1;strokeColor=none;fillColor=none;align=center;verticalAlign=middle;whiteSpace=wrap;rounded=0;" parent="4AT3hym7QcRthu2yqRaI-126" vertex="1">
          <mxGeometry x="10" y="240.00000000000006" width="185" height="30.000000000000007" as="geometry" />
        </mxCell>
        <mxCell id="4AT3hym7QcRthu2yqRaI-129" value="Headers" style="rounded=1;whiteSpace=wrap;html=1;" parent="4AT3hym7QcRthu2yqRaI-126" vertex="1">
          <mxGeometry x="195" y="240.00000000000006" width="200" height="50" as="geometry" />
        </mxCell>
        <mxCell id="4AT3hym7QcRthu2yqRaI-137" style="edgeStyle=orthogonalEdgeStyle;rounded=0;orthogonalLoop=1;jettySize=auto;html=1;exitX=1;exitY=0.5;exitDx=0;exitDy=0;" parent="4AT3hym7QcRthu2yqRaI-126" source="4AT3hym7QcRthu2yqRaI-130" target="4AT3hym7QcRthu2yqRaI-136" edge="1">
          <mxGeometry relative="1" as="geometry" />
        </mxCell>
        <mxCell id="4AT3hym7QcRthu2yqRaI-130" value="key" style="rounded=1;whiteSpace=wrap;html=1;" parent="4AT3hym7QcRthu2yqRaI-126" vertex="1">
          <mxGeometry x="195" y="290" width="200" height="50" as="geometry" />
        </mxCell>
        <mxCell id="4AT3hym7QcRthu2yqRaI-158" style="edgeStyle=orthogonalEdgeStyle;rounded=0;orthogonalLoop=1;jettySize=auto;html=1;exitX=1;exitY=0.5;exitDx=0;exitDy=0;" parent="4AT3hym7QcRthu2yqRaI-126" source="4AT3hym7QcRthu2yqRaI-131" target="4AT3hym7QcRthu2yqRaI-157" edge="1">
          <mxGeometry relative="1" as="geometry" />
        </mxCell>
        <mxCell id="4AT3hym7QcRthu2yqRaI-131" value="value" style="rounded=1;whiteSpace=wrap;html=1;" parent="4AT3hym7QcRthu2yqRaI-126" vertex="1">
          <mxGeometry x="195" y="340" width="200" height="50" as="geometry" />
        </mxCell>
        <mxCell id="4AT3hym7QcRthu2yqRaI-160" style="edgeStyle=orthogonalEdgeStyle;rounded=0;orthogonalLoop=1;jettySize=auto;html=1;exitX=1;exitY=0.5;exitDx=0;exitDy=0;" parent="4AT3hym7QcRthu2yqRaI-126" source="4AT3hym7QcRthu2yqRaI-132" target="4AT3hym7QcRthu2yqRaI-159" edge="1">
          <mxGeometry relative="1" as="geometry" />
        </mxCell>
        <mxCell id="4AT3hym7QcRthu2yqRaI-132" value="timestamp" style="rounded=1;whiteSpace=wrap;html=1;" parent="4AT3hym7QcRthu2yqRaI-126" vertex="1">
          <mxGeometry x="195" y="390" width="200" height="50" as="geometry" />
        </mxCell>
        <mxCell id="4AT3hym7QcRthu2yqRaI-135" value="opcional" style="text;html=1;strokeColor=none;fillColor=none;align=center;verticalAlign=middle;whiteSpace=wrap;rounded=0;" parent="4AT3hym7QcRthu2yqRaI-126" vertex="1">
          <mxGeometry x="470" y="250.00000000000006" width="60" height="30.000000000000007" as="geometry" />
        </mxCell>
        <mxCell id="4AT3hym7QcRthu2yqRaI-136" value="&lt;div style=&quot;text-align: justify;&quot;&gt;&lt;span style=&quot;background-color: initial;&quot;&gt;chave, que ajuda a manter o contexto da mensagem;&amp;nbsp;&lt;/span&gt;&lt;/div&gt;&lt;div style=&quot;text-align: justify;&quot;&gt;&lt;span style=&quot;background-color: initial;&quot;&gt;posso ajustar uma mensagem especifica para essa key&lt;/span&gt;&lt;/div&gt;&lt;div style=&quot;text-align: justify;&quot;&gt;&lt;span style=&quot;background-color: initial;&quot;&gt;posso ler ou descartar a partir de uma key, nao é obrigatório possuir uma key&lt;/span&gt;&lt;/div&gt;" style="text;html=1;strokeColor=none;fillColor=none;align=center;verticalAlign=middle;whiteSpace=wrap;rounded=0;" parent="4AT3hym7QcRthu2yqRaI-126" vertex="1">
          <mxGeometry x="470" y="290" width="350" height="40.00000000000001" as="geometry" />
        </mxCell>
        <mxCell id="4AT3hym7QcRthu2yqRaI-157" value="é o arquivo da mensagem: pode ser o jason, arquivo texto, protocol buffer" style="text;html=1;strokeColor=none;fillColor=none;align=center;verticalAlign=middle;whiteSpace=wrap;rounded=0;" parent="4AT3hym7QcRthu2yqRaI-126" vertex="1">
          <mxGeometry x="470" y="350" width="310" height="30.000000000000007" as="geometry" />
        </mxCell>
        <mxCell id="4AT3hym7QcRthu2yqRaI-159" value="se eu nao gerar o timestamp o kafkka em si cria um" style="text;html=1;strokeColor=none;fillColor=none;align=center;verticalAlign=middle;whiteSpace=wrap;rounded=0;" parent="4AT3hym7QcRthu2yqRaI-126" vertex="1">
          <mxGeometry x="470" y="400" width="310" height="30.000000000000007" as="geometry" />
        </mxCell>
        <mxCell id="4AT3hym7QcRthu2yqRaI-161" value="Compacted Topic: me permite visualizar sempre a visao mais recente da key descrita" style="text;html=1;strokeColor=none;fillColor=none;align=center;verticalAlign=middle;whiteSpace=wrap;rounded=0;" parent="4AT3hym7QcRthu2yqRaI-126" vertex="1">
          <mxGeometry x="50" y="510.00130434782614" width="292.5" height="31.95652173913044" as="geometry" />
        </mxCell>
        <mxCell id="4AT3hym7QcRthu2yqRaI-162" value="" style="edgeStyle=orthogonalEdgeStyle;rounded=0;orthogonalLoop=1;jettySize=auto;html=1;" parent="4AT3hym7QcRthu2yqRaI-126" source="4AT3hym7QcRthu2yqRaI-128" target="4AT3hym7QcRthu2yqRaI-161" edge="1">
          <mxGeometry relative="1" as="geometry">
            <Array as="points">
              <mxPoint x="103" y="390" />
              <mxPoint x="100" y="390" />
            </Array>
          </mxGeometry>
        </mxCell>
        <mxCell id="4AT3hym7QcRthu2yqRaI-134" value="" style="edgeStyle=orthogonalEdgeStyle;rounded=0;orthogonalLoop=1;jettySize=auto;html=1;" parent="1" source="4AT3hym7QcRthu2yqRaI-129" edge="1">
          <mxGeometry relative="1" as="geometry">
            <mxPoint x="475" y="2475" as="targetPoint" />
          </mxGeometry>
        </mxCell>
        <mxCell id="1LYFOesdYeyjKUmjPI9d-19" value="" style="group;fillColor=#fff2cc;strokeColor=#d6b656;" vertex="1" connectable="0" parent="1">
          <mxGeometry x="780" y="-40" width="630" height="570" as="geometry" />
        </mxCell>
        <mxCell id="1LYFOesdYeyjKUmjPI9d-18" value="Distribuiçao particionada" style="rounded=1;whiteSpace=wrap;html=1;align=left;verticalAlign=top;arcSize=1;" vertex="1" parent="1LYFOesdYeyjKUmjPI9d-19">
          <mxGeometry width="630" height="570" as="geometry" />
        </mxCell>
        <mxCell id="1LYFOesdYeyjKUmjPI9d-1" value="Topic: Sales" style="rounded=1;whiteSpace=wrap;html=1;" vertex="1" parent="1LYFOesdYeyjKUmjPI9d-19">
          <mxGeometry x="60" y="160" width="120" height="60" as="geometry" />
        </mxCell>
        <mxCell id="1LYFOesdYeyjKUmjPI9d-2" value="Topic: clients" style="rounded=1;whiteSpace=wrap;html=1;fillColor=#fff2cc;strokeColor=#d6b656;" vertex="1" parent="1LYFOesdYeyjKUmjPI9d-19">
          <mxGeometry x="60" y="344.1" width="120" height="60" as="geometry" />
        </mxCell>
        <mxCell id="1LYFOesdYeyjKUmjPI9d-3" value="BROKER A:" style="rounded=1;whiteSpace=wrap;html=1;align=left;verticalAlign=top;" vertex="1" parent="1LYFOesdYeyjKUmjPI9d-19">
          <mxGeometry x="320" y="40" width="190" height="110" as="geometry" />
        </mxCell>
        <mxCell id="1LYFOesdYeyjKUmjPI9d-6" style="edgeStyle=orthogonalEdgeStyle;rounded=0;orthogonalLoop=1;jettySize=auto;html=1;exitX=1;exitY=0.5;exitDx=0;exitDy=0;entryX=0;entryY=0.5;entryDx=0;entryDy=0;" edge="1" parent="1LYFOesdYeyjKUmjPI9d-19" source="1LYFOesdYeyjKUmjPI9d-1" target="1LYFOesdYeyjKUmjPI9d-3">
          <mxGeometry relative="1" as="geometry" />
        </mxCell>
        <mxCell id="1LYFOesdYeyjKUmjPI9d-7" style="edgeStyle=orthogonalEdgeStyle;rounded=0;orthogonalLoop=1;jettySize=auto;html=1;exitX=1;exitY=0.5;exitDx=0;exitDy=0;entryX=0;entryY=0.5;entryDx=0;entryDy=0;" edge="1" parent="1LYFOesdYeyjKUmjPI9d-19" source="1LYFOesdYeyjKUmjPI9d-2" target="1LYFOesdYeyjKUmjPI9d-3">
          <mxGeometry relative="1" as="geometry" />
        </mxCell>
        <mxCell id="1LYFOesdYeyjKUmjPI9d-4" value="BROKER B:" style="rounded=1;whiteSpace=wrap;html=1;align=left;verticalAlign=top;" vertex="1" parent="1LYFOesdYeyjKUmjPI9d-19">
          <mxGeometry x="320" y="230" width="190" height="110" as="geometry" />
        </mxCell>
        <mxCell id="1LYFOesdYeyjKUmjPI9d-8" style="edgeStyle=orthogonalEdgeStyle;rounded=0;orthogonalLoop=1;jettySize=auto;html=1;exitX=1;exitY=0.5;exitDx=0;exitDy=0;entryX=0;entryY=0.5;entryDx=0;entryDy=0;" edge="1" parent="1LYFOesdYeyjKUmjPI9d-19" source="1LYFOesdYeyjKUmjPI9d-1" target="1LYFOesdYeyjKUmjPI9d-4">
          <mxGeometry relative="1" as="geometry" />
        </mxCell>
        <mxCell id="1LYFOesdYeyjKUmjPI9d-9" style="edgeStyle=orthogonalEdgeStyle;rounded=0;orthogonalLoop=1;jettySize=auto;html=1;exitX=1;exitY=0.5;exitDx=0;exitDy=0;entryX=0;entryY=0.5;entryDx=0;entryDy=0;" edge="1" parent="1LYFOesdYeyjKUmjPI9d-19" source="1LYFOesdYeyjKUmjPI9d-2" target="1LYFOesdYeyjKUmjPI9d-4">
          <mxGeometry relative="1" as="geometry" />
        </mxCell>
        <mxCell id="1LYFOesdYeyjKUmjPI9d-5" value="BROKER C:" style="rounded=1;whiteSpace=wrap;html=1;align=left;verticalAlign=top;" vertex="1" parent="1LYFOesdYeyjKUmjPI9d-19">
          <mxGeometry x="320" y="429.1" width="190" height="110" as="geometry" />
        </mxCell>
        <mxCell id="1LYFOesdYeyjKUmjPI9d-11" style="edgeStyle=orthogonalEdgeStyle;rounded=0;orthogonalLoop=1;jettySize=auto;html=1;exitX=1;exitY=0.5;exitDx=0;exitDy=0;entryX=0;entryY=0.5;entryDx=0;entryDy=0;" edge="1" parent="1LYFOesdYeyjKUmjPI9d-19" source="1LYFOesdYeyjKUmjPI9d-1" target="1LYFOesdYeyjKUmjPI9d-5">
          <mxGeometry relative="1" as="geometry" />
        </mxCell>
        <mxCell id="1LYFOesdYeyjKUmjPI9d-10" style="edgeStyle=orthogonalEdgeStyle;rounded=0;orthogonalLoop=1;jettySize=auto;html=1;exitX=1;exitY=0.5;exitDx=0;exitDy=0;entryX=0;entryY=0.5;entryDx=0;entryDy=0;" edge="1" parent="1LYFOesdYeyjKUmjPI9d-19" source="1LYFOesdYeyjKUmjPI9d-2" target="1LYFOesdYeyjKUmjPI9d-5">
          <mxGeometry relative="1" as="geometry" />
        </mxCell>
        <mxCell id="1LYFOesdYeyjKUmjPI9d-12" value="Partition 1" style="rounded=1;whiteSpace=wrap;html=1;fillColor=#fff2cc;strokeColor=#d6b656;" vertex="1" parent="1LYFOesdYeyjKUmjPI9d-19">
          <mxGeometry x="345.5" y="67.5" width="139" height="25" as="geometry" />
        </mxCell>
        <mxCell id="1LYFOesdYeyjKUmjPI9d-13" value="Partition 3" style="rounded=1;whiteSpace=wrap;html=1;" vertex="1" parent="1LYFOesdYeyjKUmjPI9d-19">
          <mxGeometry x="345.5" y="100" width="139" height="25" as="geometry" />
        </mxCell>
        <mxCell id="1LYFOesdYeyjKUmjPI9d-14" value="Partition 2" style="rounded=1;whiteSpace=wrap;html=1;" vertex="1" parent="1LYFOesdYeyjKUmjPI9d-19">
          <mxGeometry x="345.5" y="262.5" width="139" height="25" as="geometry" />
        </mxCell>
        <mxCell id="1LYFOesdYeyjKUmjPI9d-15" value="Partition 3" style="rounded=1;whiteSpace=wrap;html=1;fillColor=#fff2cc;strokeColor=#d6b656;" vertex="1" parent="1LYFOesdYeyjKUmjPI9d-19">
          <mxGeometry x="345.5" y="295" width="139" height="25" as="geometry" />
        </mxCell>
        <mxCell id="1LYFOesdYeyjKUmjPI9d-16" value="Partition 1" style="rounded=1;whiteSpace=wrap;html=1;" vertex="1" parent="1LYFOesdYeyjKUmjPI9d-19">
          <mxGeometry x="345.5" y="462.5" width="139" height="25" as="geometry" />
        </mxCell>
        <mxCell id="1LYFOesdYeyjKUmjPI9d-17" value="Partition 2" style="rounded=1;whiteSpace=wrap;html=1;fillColor=#fff2cc;strokeColor=#d6b656;" vertex="1" parent="1LYFOesdYeyjKUmjPI9d-19">
          <mxGeometry x="345.5" y="495" width="139" height="25" as="geometry" />
        </mxCell>
        <mxCell id="1LYFOesdYeyjKUmjPI9d-41" value="" style="group" vertex="1" connectable="0" parent="1">
          <mxGeometry x="780" y="630" width="630" height="570" as="geometry" />
        </mxCell>
        <mxCell id="1LYFOesdYeyjKUmjPI9d-20" value="Replication Factor :2" style="rounded=1;whiteSpace=wrap;html=1;align=left;verticalAlign=top;arcSize=1;" vertex="1" parent="1LYFOesdYeyjKUmjPI9d-41">
          <mxGeometry width="630" height="570" as="geometry" />
        </mxCell>
        <mxCell id="1LYFOesdYeyjKUmjPI9d-24" value="Topic: Sales" style="rounded=1;whiteSpace=wrap;html=1;" vertex="1" parent="1LYFOesdYeyjKUmjPI9d-41">
          <mxGeometry x="50" y="255" width="120" height="60" as="geometry" />
        </mxCell>
        <mxCell id="1LYFOesdYeyjKUmjPI9d-29" value="BROKER A:" style="rounded=1;whiteSpace=wrap;html=1;align=left;verticalAlign=top;" vertex="1" parent="1LYFOesdYeyjKUmjPI9d-41">
          <mxGeometry x="320" y="40" width="190" height="110" as="geometry" />
        </mxCell>
        <mxCell id="1LYFOesdYeyjKUmjPI9d-21" style="edgeStyle=orthogonalEdgeStyle;rounded=0;orthogonalLoop=1;jettySize=auto;html=1;exitX=1;exitY=0.5;exitDx=0;exitDy=0;entryX=0;entryY=0.5;entryDx=0;entryDy=0;" edge="1" parent="1LYFOesdYeyjKUmjPI9d-41" source="1LYFOesdYeyjKUmjPI9d-24" target="1LYFOesdYeyjKUmjPI9d-29">
          <mxGeometry relative="1" as="geometry" />
        </mxCell>
        <mxCell id="1LYFOesdYeyjKUmjPI9d-30" value="BROKER B:" style="rounded=1;whiteSpace=wrap;html=1;align=left;verticalAlign=top;" vertex="1" parent="1LYFOesdYeyjKUmjPI9d-41">
          <mxGeometry x="320" y="230" width="190" height="110" as="geometry" />
        </mxCell>
        <mxCell id="1LYFOesdYeyjKUmjPI9d-22" style="edgeStyle=orthogonalEdgeStyle;rounded=0;orthogonalLoop=1;jettySize=auto;html=1;exitX=1;exitY=0.5;exitDx=0;exitDy=0;entryX=0;entryY=0.5;entryDx=0;entryDy=0;" edge="1" parent="1LYFOesdYeyjKUmjPI9d-41" source="1LYFOesdYeyjKUmjPI9d-24" target="1LYFOesdYeyjKUmjPI9d-30">
          <mxGeometry relative="1" as="geometry" />
        </mxCell>
        <mxCell id="1LYFOesdYeyjKUmjPI9d-31" value="BROKER C:" style="rounded=1;whiteSpace=wrap;html=1;align=left;verticalAlign=top;" vertex="1" parent="1LYFOesdYeyjKUmjPI9d-41">
          <mxGeometry x="320" y="429.0999999999999" width="190" height="110" as="geometry" />
        </mxCell>
        <mxCell id="1LYFOesdYeyjKUmjPI9d-23" style="edgeStyle=orthogonalEdgeStyle;rounded=0;orthogonalLoop=1;jettySize=auto;html=1;exitX=1;exitY=0.5;exitDx=0;exitDy=0;entryX=0;entryY=0.5;entryDx=0;entryDy=0;" edge="1" parent="1LYFOesdYeyjKUmjPI9d-41" source="1LYFOesdYeyjKUmjPI9d-24" target="1LYFOesdYeyjKUmjPI9d-31">
          <mxGeometry relative="1" as="geometry" />
        </mxCell>
        <mxCell id="1LYFOesdYeyjKUmjPI9d-32" value="Partition 1" style="rounded=1;whiteSpace=wrap;html=1;fillColor=#fff2cc;strokeColor=#d6b656;" vertex="1" parent="1LYFOesdYeyjKUmjPI9d-41">
          <mxGeometry x="345.5" y="67.5" width="139" height="25" as="geometry" />
        </mxCell>
        <mxCell id="1LYFOesdYeyjKUmjPI9d-33" value="Partition 3" style="rounded=1;whiteSpace=wrap;html=1;fillColor=#dae8fc;strokeColor=#6c8ebf;" vertex="1" parent="1LYFOesdYeyjKUmjPI9d-41">
          <mxGeometry x="345.5" y="100" width="139" height="25" as="geometry" />
        </mxCell>
        <mxCell id="1LYFOesdYeyjKUmjPI9d-34" value="Partition 2" style="rounded=1;whiteSpace=wrap;html=1;fillColor=#f8cecc;strokeColor=#b85450;" vertex="1" parent="1LYFOesdYeyjKUmjPI9d-41">
          <mxGeometry x="345.5" y="262.5" width="139" height="25" as="geometry" />
        </mxCell>
        <mxCell id="1LYFOesdYeyjKUmjPI9d-35" value="Partition 3" style="rounded=1;whiteSpace=wrap;html=1;fillColor=#dae8fc;strokeColor=#6c8ebf;" vertex="1" parent="1LYFOesdYeyjKUmjPI9d-41">
          <mxGeometry x="345.5" y="295" width="139" height="25" as="geometry" />
        </mxCell>
        <mxCell id="1LYFOesdYeyjKUmjPI9d-38" value="Partition 1" style="rounded=1;whiteSpace=wrap;html=1;fillColor=#fff2cc;strokeColor=#d6b656;" vertex="1" parent="1LYFOesdYeyjKUmjPI9d-41">
          <mxGeometry x="345.5" y="500" width="139" height="25" as="geometry" />
        </mxCell>
        <mxCell id="1LYFOesdYeyjKUmjPI9d-39" value="Partition 2" style="rounded=1;whiteSpace=wrap;html=1;fillColor=#f8cecc;strokeColor=#b85450;" vertex="1" parent="1LYFOesdYeyjKUmjPI9d-41">
          <mxGeometry x="345.5" y="464" width="139" height="25" as="geometry" />
        </mxCell>
        <mxCell id="1LYFOesdYeyjKUmjPI9d-40" value="Fator de replicaçao =2 significa que tenho uma réplica da minha particao em um broker diferente&amp;nbsp;" style="text;html=1;strokeColor=none;fillColor=none;align=center;verticalAlign=middle;whiteSpace=wrap;rounded=0;" vertex="1" parent="1LYFOesdYeyjKUmjPI9d-41">
          <mxGeometry x="10" y="17.5" width="270" height="50" as="geometry" />
        </mxCell>
        <mxCell id="1LYFOesdYeyjKUmjPI9d-45" value="" style="group" vertex="1" connectable="0" parent="1">
          <mxGeometry x="780" y="1280" width="630" height="180" as="geometry" />
        </mxCell>
        <mxCell id="1LYFOesdYeyjKUmjPI9d-42" value="Delivery" style="rounded=1;whiteSpace=wrap;html=1;align=left;verticalAlign=top;arcSize=1;" vertex="1" parent="1LYFOesdYeyjKUmjPI9d-45">
          <mxGeometry width="630" height="180" as="geometry" />
        </mxCell>
        <mxCell id="1LYFOesdYeyjKUmjPI9d-43" value="sem uma key: algoritmo Round Robin, distribuiçao aleatória de mensagens por partição. Além do que eu nao vou ter mensagem ordenada." style="text;html=1;strokeColor=none;fillColor=none;align=left;verticalAlign=middle;whiteSpace=wrap;rounded=0;" vertex="1" parent="1LYFOesdYeyjKUmjPI9d-45">
          <mxGeometry x="10" y="30" width="270" height="50" as="geometry" />
        </mxCell>
        <mxCell id="1LYFOesdYeyjKUmjPI9d-44" value="com uma key: cada mensagem vai para uma partição específica. e eu consigo saber a ordem da mesagem, mas isso é devido ao uso da key" style="text;html=1;strokeColor=none;fillColor=none;align=left;verticalAlign=middle;whiteSpace=wrap;rounded=0;" vertex="1" parent="1LYFOesdYeyjKUmjPI9d-45">
          <mxGeometry x="10" y="100" width="270" height="50" as="geometry" />
        </mxCell>
        <mxCell id="1LYFOesdYeyjKUmjPI9d-46" value="" style="group" vertex="1" connectable="0" parent="1">
          <mxGeometry x="780" y="1540" width="630" height="270" as="geometry" />
        </mxCell>
        <mxCell id="1LYFOesdYeyjKUmjPI9d-47" value="Partition leadership&lt;br&gt;é a orgiem do replacation factor, é onde sempre lerei os arquivos, no caso os arquivos de tons escuros sao os leaderships e os outros são os followers" style="rounded=1;whiteSpace=wrap;html=1;align=left;verticalAlign=top;arcSize=1;" vertex="1" parent="1LYFOesdYeyjKUmjPI9d-46">
          <mxGeometry width="630" height="270" as="geometry" />
        </mxCell>
        <mxCell id="1LYFOesdYeyjKUmjPI9d-53" value="" style="group" vertex="1" connectable="0" parent="1LYFOesdYeyjKUmjPI9d-46">
          <mxGeometry x="25" y="80" width="190" height="110" as="geometry" />
        </mxCell>
        <mxCell id="1LYFOesdYeyjKUmjPI9d-50" value="BROKER A:" style="rounded=1;whiteSpace=wrap;html=1;align=left;verticalAlign=top;" vertex="1" parent="1LYFOesdYeyjKUmjPI9d-53">
          <mxGeometry width="190" height="110" as="geometry" />
        </mxCell>
        <mxCell id="1LYFOesdYeyjKUmjPI9d-51" value="Partition 1" style="rounded=1;whiteSpace=wrap;html=1;fillColor=#e3c800;strokeColor=#B09500;fontColor=#000000;" vertex="1" parent="1LYFOesdYeyjKUmjPI9d-53">
          <mxGeometry x="25.5" y="27.5" width="139" height="25" as="geometry" />
        </mxCell>
        <mxCell id="1LYFOesdYeyjKUmjPI9d-52" value="Partition 3" style="rounded=1;whiteSpace=wrap;html=1;fillColor=#1ba1e2;strokeColor=#006EAF;fontColor=#ffffff;" vertex="1" parent="1LYFOesdYeyjKUmjPI9d-53">
          <mxGeometry x="25.5" y="60" width="139" height="25" as="geometry" />
        </mxCell>
        <mxCell id="1LYFOesdYeyjKUmjPI9d-57" value="" style="group" vertex="1" connectable="0" parent="1LYFOesdYeyjKUmjPI9d-46">
          <mxGeometry x="222" y="80" width="190" height="110" as="geometry" />
        </mxCell>
        <mxCell id="1LYFOesdYeyjKUmjPI9d-54" value="BROKER B:" style="rounded=1;whiteSpace=wrap;html=1;align=left;verticalAlign=top;" vertex="1" parent="1LYFOesdYeyjKUmjPI9d-57">
          <mxGeometry x="1" width="190" height="110" as="geometry" />
        </mxCell>
        <mxCell id="1LYFOesdYeyjKUmjPI9d-55" value="Partition 2" style="rounded=1;whiteSpace=wrap;html=1;fillColor=#e51400;strokeColor=#B20000;fontColor=#ffffff;" vertex="1" parent="1LYFOesdYeyjKUmjPI9d-57">
          <mxGeometry x="25.5" y="32.5" width="139" height="25" as="geometry" />
        </mxCell>
        <mxCell id="1LYFOesdYeyjKUmjPI9d-56" value="Partition 3" style="rounded=1;whiteSpace=wrap;html=1;fillColor=#dae8fc;strokeColor=#6c8ebf;" vertex="1" parent="1LYFOesdYeyjKUmjPI9d-57">
          <mxGeometry x="25.5" y="65" width="139" height="25" as="geometry" />
        </mxCell>
        <mxCell id="1LYFOesdYeyjKUmjPI9d-61" value="" style="group" vertex="1" connectable="0" parent="1LYFOesdYeyjKUmjPI9d-46">
          <mxGeometry x="420" y="80" width="190" height="110" as="geometry" />
        </mxCell>
        <mxCell id="1LYFOesdYeyjKUmjPI9d-58" value="BROKER C:" style="rounded=1;whiteSpace=wrap;html=1;align=left;verticalAlign=top;" vertex="1" parent="1LYFOesdYeyjKUmjPI9d-61">
          <mxGeometry width="190" height="110" as="geometry" />
        </mxCell>
        <mxCell id="1LYFOesdYeyjKUmjPI9d-59" value="Partition 1" style="rounded=1;whiteSpace=wrap;html=1;fillColor=#fff2cc;strokeColor=#d6b656;" vertex="1" parent="1LYFOesdYeyjKUmjPI9d-61">
          <mxGeometry x="25.5" y="70.90000000000009" width="139" height="25" as="geometry" />
        </mxCell>
        <mxCell id="1LYFOesdYeyjKUmjPI9d-60" value="Partition 2" style="rounded=1;whiteSpace=wrap;html=1;fillColor=#f8cecc;strokeColor=#b85450;" vertex="1" parent="1LYFOesdYeyjKUmjPI9d-61">
          <mxGeometry x="25.5" y="34.90000000000009" width="139" height="25" as="geometry" />
        </mxCell>
        <mxCell id="1LYFOesdYeyjKUmjPI9d-74" value="" style="group" vertex="1" connectable="0" parent="1">
          <mxGeometry x="780" y="1840" width="630" height="180" as="geometry" />
        </mxCell>
        <mxCell id="1LYFOesdYeyjKUmjPI9d-62" value="" style="group" vertex="1" connectable="0" parent="1LYFOesdYeyjKUmjPI9d-74">
          <mxGeometry width="630" height="180" as="geometry" />
        </mxCell>
        <mxCell id="1LYFOesdYeyjKUmjPI9d-63" value="Producer&lt;br&gt;processo padrao de entrega utilizado pelo kafka" style="rounded=1;whiteSpace=wrap;html=1;align=left;verticalAlign=top;arcSize=1;" vertex="1" parent="1LYFOesdYeyjKUmjPI9d-62">
          <mxGeometry width="630" height="180" as="geometry" />
        </mxCell>
        <mxCell id="1LYFOesdYeyjKUmjPI9d-67" value="&lt;div style=&quot;text-align: left;&quot;&gt;&lt;span style=&quot;background-color: initial;&quot;&gt;Record&lt;/span&gt;&lt;/div&gt;&lt;div style=&quot;text-align: left;&quot;&gt;&lt;span style=&quot;background-color: initial;&quot;&gt;-Topic&lt;/span&gt;&lt;/div&gt;&lt;div style=&quot;text-align: left;&quot;&gt;&lt;span style=&quot;background-color: initial;&quot;&gt;-Key&lt;/span&gt;&lt;/div&gt;&lt;div style=&quot;text-align: left;&quot;&gt;&lt;span style=&quot;background-color: initial;&quot;&gt;-value&lt;/span&gt;&lt;/div&gt;" style="rounded=1;whiteSpace=wrap;html=1;" vertex="1" parent="1LYFOesdYeyjKUmjPI9d-62">
          <mxGeometry x="10" y="60" width="120" height="60" as="geometry" />
        </mxCell>
        <mxCell id="1LYFOesdYeyjKUmjPI9d-77" value="send()&lt;br&gt;try" style="text;html=1;strokeColor=none;fillColor=none;align=center;verticalAlign=middle;whiteSpace=wrap;rounded=0;" vertex="1" parent="1LYFOesdYeyjKUmjPI9d-62">
          <mxGeometry x="120" y="50" width="60" height="30" as="geometry" />
        </mxCell>
        <mxCell id="1LYFOesdYeyjKUmjPI9d-68" value="&lt;div style=&quot;text-align: left;&quot;&gt;Serializer&lt;/div&gt;" style="rounded=1;whiteSpace=wrap;html=1;" vertex="1" parent="1LYFOesdYeyjKUmjPI9d-74">
          <mxGeometry x="176.4" y="60" width="100.8" height="60" as="geometry" />
        </mxCell>
        <mxCell id="1LYFOesdYeyjKUmjPI9d-69" value="" style="edgeStyle=orthogonalEdgeStyle;rounded=0;orthogonalLoop=1;jettySize=auto;html=1;" edge="1" parent="1LYFOesdYeyjKUmjPI9d-74" source="1LYFOesdYeyjKUmjPI9d-67" target="1LYFOesdYeyjKUmjPI9d-68">
          <mxGeometry relative="1" as="geometry" />
        </mxCell>
        <mxCell id="1LYFOesdYeyjKUmjPI9d-70" value="&lt;div style=&quot;text-align: left;&quot;&gt;Partitioner&lt;/div&gt;" style="rounded=1;whiteSpace=wrap;html=1;" vertex="1" parent="1LYFOesdYeyjKUmjPI9d-74">
          <mxGeometry x="344.4" y="60" width="100.8" height="60" as="geometry" />
        </mxCell>
        <mxCell id="1LYFOesdYeyjKUmjPI9d-71" value="" style="edgeStyle=orthogonalEdgeStyle;rounded=0;orthogonalLoop=1;jettySize=auto;html=1;" edge="1" parent="1LYFOesdYeyjKUmjPI9d-74" source="1LYFOesdYeyjKUmjPI9d-68" target="1LYFOesdYeyjKUmjPI9d-70">
          <mxGeometry relative="1" as="geometry" />
        </mxCell>
        <mxCell id="1LYFOesdYeyjKUmjPI9d-72" value="&lt;div style=&quot;text-align: left;&quot;&gt;Broker A&lt;/div&gt;" style="rounded=1;whiteSpace=wrap;html=1;" vertex="1" parent="1LYFOesdYeyjKUmjPI9d-74">
          <mxGeometry x="512.4" y="60" width="100.8" height="60" as="geometry" />
        </mxCell>
        <mxCell id="1LYFOesdYeyjKUmjPI9d-73" value="" style="edgeStyle=orthogonalEdgeStyle;rounded=0;orthogonalLoop=1;jettySize=auto;html=1;" edge="1" parent="1LYFOesdYeyjKUmjPI9d-74" source="1LYFOesdYeyjKUmjPI9d-70" target="1LYFOesdYeyjKUmjPI9d-72">
          <mxGeometry relative="1" as="geometry" />
        </mxCell>
        <mxCell id="1LYFOesdYeyjKUmjPI9d-79" value="" style="group" vertex="1" connectable="0" parent="1">
          <mxGeometry x="780" y="2060" width="640" height="640" as="geometry" />
        </mxCell>
        <mxCell id="1LYFOesdYeyjKUmjPI9d-81" value="Delivery guarantees (garantias de entrega)" style="rounded=1;whiteSpace=wrap;html=1;align=left;verticalAlign=top;arcSize=1;" vertex="1" parent="1LYFOesdYeyjKUmjPI9d-79">
          <mxGeometry width="630" height="640" as="geometry" />
        </mxCell>
        <mxCell id="1LYFOesdYeyjKUmjPI9d-97" value="" style="group" vertex="1" connectable="0" parent="1LYFOesdYeyjKUmjPI9d-79">
          <mxGeometry x="20" y="210" width="193.6" height="76.67000000000007" as="geometry" />
        </mxCell>
        <mxCell id="1LYFOesdYeyjKUmjPI9d-99" style="edgeStyle=orthogonalEdgeStyle;rounded=0;orthogonalLoop=1;jettySize=auto;html=1;exitX=1;exitY=0.5;exitDx=0;exitDy=0;entryX=0;entryY=0.5;entryDx=0;entryDy=0;" edge="1" parent="1LYFOesdYeyjKUmjPI9d-97" source="1LYFOesdYeyjKUmjPI9d-93" target="1LYFOesdYeyjKUmjPI9d-94">
          <mxGeometry relative="1" as="geometry" />
        </mxCell>
        <mxCell id="1LYFOesdYeyjKUmjPI9d-135" value="Ack1" style="edgeLabel;html=1;align=center;verticalAlign=middle;resizable=0;points=[];" vertex="1" connectable="0" parent="1LYFOesdYeyjKUmjPI9d-99">
          <mxGeometry x="-0.4548" y="1" relative="1" as="geometry">
            <mxPoint as="offset" />
          </mxGeometry>
        </mxCell>
        <mxCell id="1LYFOesdYeyjKUmjPI9d-93" value="&lt;div style=&quot;text-align: left;&quot;&gt;Producer&lt;/div&gt;" style="rounded=1;whiteSpace=wrap;html=1;" vertex="1" parent="1LYFOesdYeyjKUmjPI9d-97">
          <mxGeometry y="30" width="70" height="26.67" as="geometry" />
        </mxCell>
        <mxCell id="1LYFOesdYeyjKUmjPI9d-94" value="&lt;div style=&quot;text-align: left;&quot;&gt;Broker A&lt;/div&gt;" style="rounded=1;whiteSpace=wrap;html=1;" vertex="1" parent="1LYFOesdYeyjKUmjPI9d-97">
          <mxGeometry x="130" width="63.6" height="20" as="geometry" />
        </mxCell>
        <mxCell id="1LYFOesdYeyjKUmjPI9d-95" value="&lt;div style=&quot;text-align: left;&quot;&gt;Broker B&lt;/div&gt;" style="rounded=1;whiteSpace=wrap;html=1;" vertex="1" parent="1LYFOesdYeyjKUmjPI9d-97">
          <mxGeometry x="130" y="30" width="63.6" height="20" as="geometry" />
        </mxCell>
        <mxCell id="1LYFOesdYeyjKUmjPI9d-96" value="&lt;div style=&quot;text-align: left;&quot;&gt;Broker C&lt;/div&gt;" style="rounded=1;whiteSpace=wrap;html=1;" vertex="1" parent="1LYFOesdYeyjKUmjPI9d-97">
          <mxGeometry x="130" y="56.67000000000007" width="63.6" height="20" as="geometry" />
        </mxCell>
        <mxCell id="1LYFOesdYeyjKUmjPI9d-98" value="" style="group" vertex="1" connectable="0" parent="1LYFOesdYeyjKUmjPI9d-79">
          <mxGeometry x="20" y="60" width="193.6" height="76.67000000000007" as="geometry" />
        </mxCell>
        <mxCell id="1LYFOesdYeyjKUmjPI9d-82" value="&lt;div style=&quot;text-align: left;&quot;&gt;Producer&lt;/div&gt;" style="rounded=1;whiteSpace=wrap;html=1;" vertex="1" parent="1LYFOesdYeyjKUmjPI9d-98">
          <mxGeometry y="30" width="70" height="26.67" as="geometry" />
        </mxCell>
        <mxCell id="1LYFOesdYeyjKUmjPI9d-88" value="&lt;div style=&quot;text-align: left;&quot;&gt;Broker A&lt;/div&gt;" style="rounded=1;whiteSpace=wrap;html=1;" vertex="1" parent="1LYFOesdYeyjKUmjPI9d-98">
          <mxGeometry x="130" width="63.6" height="20" as="geometry" />
        </mxCell>
        <mxCell id="1LYFOesdYeyjKUmjPI9d-91" value="&lt;div style=&quot;text-align: left;&quot;&gt;Broker B&lt;/div&gt;" style="rounded=1;whiteSpace=wrap;html=1;" vertex="1" parent="1LYFOesdYeyjKUmjPI9d-98">
          <mxGeometry x="130" y="30" width="63.6" height="20" as="geometry" />
        </mxCell>
        <mxCell id="1LYFOesdYeyjKUmjPI9d-92" value="&lt;div style=&quot;text-align: left;&quot;&gt;Broker C&lt;/div&gt;" style="rounded=1;whiteSpace=wrap;html=1;" vertex="1" parent="1LYFOesdYeyjKUmjPI9d-98">
          <mxGeometry x="130" y="56.67000000000007" width="63.6" height="20" as="geometry" />
        </mxCell>
        <mxCell id="1LYFOesdYeyjKUmjPI9d-85" value="" style="edgeStyle=orthogonalEdgeStyle;rounded=0;orthogonalLoop=1;jettySize=auto;html=1;entryX=0;entryY=0.5;entryDx=0;entryDy=0;" edge="1" parent="1LYFOesdYeyjKUmjPI9d-98" source="1LYFOesdYeyjKUmjPI9d-82" target="1LYFOesdYeyjKUmjPI9d-88">
          <mxGeometry relative="1" as="geometry">
            <mxPoint x="176.4000000000001" y="90" as="targetPoint" />
          </mxGeometry>
        </mxCell>
        <mxCell id="1LYFOesdYeyjKUmjPI9d-134" value="Ack0" style="edgeLabel;html=1;align=center;verticalAlign=middle;resizable=0;points=[];" vertex="1" connectable="0" parent="1LYFOesdYeyjKUmjPI9d-85">
          <mxGeometry x="-0.4093" y="2" relative="1" as="geometry">
            <mxPoint as="offset" />
          </mxGeometry>
        </mxCell>
        <mxCell id="1LYFOesdYeyjKUmjPI9d-126" value="" style="group" vertex="1" connectable="0" parent="1LYFOesdYeyjKUmjPI9d-79">
          <mxGeometry x="355" y="50" width="193.6" height="76.67000000000007" as="geometry" />
        </mxCell>
        <mxCell id="1LYFOesdYeyjKUmjPI9d-127" style="edgeStyle=orthogonalEdgeStyle;rounded=0;orthogonalLoop=1;jettySize=auto;html=1;exitX=1;exitY=0.5;exitDx=0;exitDy=0;entryX=0;entryY=0.5;entryDx=0;entryDy=0;" edge="1" parent="1LYFOesdYeyjKUmjPI9d-126" source="1LYFOesdYeyjKUmjPI9d-128" target="1LYFOesdYeyjKUmjPI9d-129">
          <mxGeometry relative="1" as="geometry" />
        </mxCell>
        <mxCell id="1LYFOesdYeyjKUmjPI9d-136" value="ack-1" style="edgeLabel;html=1;align=center;verticalAlign=middle;resizable=0;points=[];" vertex="1" connectable="0" parent="1LYFOesdYeyjKUmjPI9d-127">
          <mxGeometry x="0.026" y="2" relative="1" as="geometry">
            <mxPoint as="offset" />
          </mxGeometry>
        </mxCell>
        <mxCell id="1LYFOesdYeyjKUmjPI9d-128" value="&lt;div style=&quot;text-align: left;&quot;&gt;Producer&lt;/div&gt;" style="rounded=1;whiteSpace=wrap;html=1;" vertex="1" parent="1LYFOesdYeyjKUmjPI9d-126">
          <mxGeometry y="30" width="70" height="26.67" as="geometry" />
        </mxCell>
        <mxCell id="1LYFOesdYeyjKUmjPI9d-132" style="edgeStyle=orthogonalEdgeStyle;rounded=0;orthogonalLoop=1;jettySize=auto;html=1;exitX=1;exitY=0.5;exitDx=0;exitDy=0;entryX=1;entryY=0.5;entryDx=0;entryDy=0;" edge="1" parent="1LYFOesdYeyjKUmjPI9d-126" source="1LYFOesdYeyjKUmjPI9d-129" target="1LYFOesdYeyjKUmjPI9d-130">
          <mxGeometry relative="1" as="geometry">
            <Array as="points">
              <mxPoint x="205" y="10" />
              <mxPoint x="205" y="40" />
            </Array>
          </mxGeometry>
        </mxCell>
        <mxCell id="1LYFOesdYeyjKUmjPI9d-133" style="edgeStyle=orthogonalEdgeStyle;rounded=0;orthogonalLoop=1;jettySize=auto;html=1;exitX=1;exitY=0.5;exitDx=0;exitDy=0;entryX=1;entryY=0.5;entryDx=0;entryDy=0;" edge="1" parent="1LYFOesdYeyjKUmjPI9d-126" source="1LYFOesdYeyjKUmjPI9d-129" target="1LYFOesdYeyjKUmjPI9d-131">
          <mxGeometry relative="1" as="geometry" />
        </mxCell>
        <mxCell id="1LYFOesdYeyjKUmjPI9d-129" value="&lt;div style=&quot;text-align: left;&quot;&gt;Broker A&lt;/div&gt;" style="rounded=1;whiteSpace=wrap;html=1;" vertex="1" parent="1LYFOesdYeyjKUmjPI9d-126">
          <mxGeometry x="130" width="63.6" height="20" as="geometry" />
        </mxCell>
        <mxCell id="1LYFOesdYeyjKUmjPI9d-130" value="&lt;div style=&quot;text-align: left;&quot;&gt;Broker B&lt;/div&gt;" style="rounded=1;whiteSpace=wrap;html=1;" vertex="1" parent="1LYFOesdYeyjKUmjPI9d-126">
          <mxGeometry x="130" y="30" width="63.6" height="20" as="geometry" />
        </mxCell>
        <mxCell id="1LYFOesdYeyjKUmjPI9d-131" value="&lt;div style=&quot;text-align: left;&quot;&gt;Broker C&lt;/div&gt;" style="rounded=1;whiteSpace=wrap;html=1;" vertex="1" parent="1LYFOesdYeyjKUmjPI9d-126">
          <mxGeometry x="130" y="56.67000000000007" width="63.6" height="20" as="geometry" />
        </mxCell>
        <mxCell id="1LYFOesdYeyjKUmjPI9d-137" value="Ack 0: o kafka nao vai dar retorno de que a mensagem foi gravada&lt;br&gt;&lt;br&gt;ack 1 assim que o broker que recebeu mensagem ele envia para producer dizendo que recebeu&lt;br&gt;&lt;br&gt;ack -1 mensagem só é enviada depois que o brocker leader recebeu e todos os brokers de acordo com o raplication factor" style="text;html=1;strokeColor=none;fillColor=none;align=left;verticalAlign=middle;whiteSpace=wrap;rounded=0;" vertex="1" parent="1LYFOesdYeyjKUmjPI9d-79">
          <mxGeometry x="355" y="173.32999999999998" width="255" height="150" as="geometry" />
        </mxCell>
        <mxCell id="1LYFOesdYeyjKUmjPI9d-151" style="rounded=0;orthogonalLoop=1;jettySize=auto;html=1;exitX=1;exitY=0.25;exitDx=0;exitDy=0;entryX=0;entryY=0.5;entryDx=0;entryDy=0;" edge="1" parent="1LYFOesdYeyjKUmjPI9d-79" source="1LYFOesdYeyjKUmjPI9d-138" target="1LYFOesdYeyjKUmjPI9d-148">
          <mxGeometry relative="1" as="geometry" />
        </mxCell>
        <mxCell id="1LYFOesdYeyjKUmjPI9d-152" style="rounded=0;orthogonalLoop=1;jettySize=auto;html=1;exitX=1;exitY=0.5;exitDx=0;exitDy=0;" edge="1" parent="1LYFOesdYeyjKUmjPI9d-79" source="1LYFOesdYeyjKUmjPI9d-138" target="1LYFOesdYeyjKUmjPI9d-149">
          <mxGeometry relative="1" as="geometry" />
        </mxCell>
        <mxCell id="1LYFOesdYeyjKUmjPI9d-153" style="rounded=0;orthogonalLoop=1;jettySize=auto;html=1;exitX=1;exitY=0.75;exitDx=0;exitDy=0;entryX=0;entryY=0.5;entryDx=0;entryDy=0;" edge="1" parent="1LYFOesdYeyjKUmjPI9d-79" source="1LYFOesdYeyjKUmjPI9d-138" target="1LYFOesdYeyjKUmjPI9d-150">
          <mxGeometry relative="1" as="geometry" />
        </mxCell>
        <mxCell id="1LYFOesdYeyjKUmjPI9d-138" value="Kafka process" style="rounded=1;whiteSpace=wrap;html=1;" vertex="1" parent="1LYFOesdYeyjKUmjPI9d-79">
          <mxGeometry x="180" y="480" width="120" height="60" as="geometry" />
        </mxCell>
        <mxCell id="1LYFOesdYeyjKUmjPI9d-139" value="1" style="rounded=1;whiteSpace=wrap;html=1;" vertex="1" parent="1LYFOesdYeyjKUmjPI9d-79">
          <mxGeometry x="27" y="500" width="20" height="20" as="geometry" />
        </mxCell>
        <mxCell id="1LYFOesdYeyjKUmjPI9d-140" value="2" style="rounded=1;whiteSpace=wrap;html=1;" vertex="1" parent="1LYFOesdYeyjKUmjPI9d-79">
          <mxGeometry x="80" y="500" width="20" height="20" as="geometry" />
        </mxCell>
        <mxCell id="1LYFOesdYeyjKUmjPI9d-141" value="" style="edgeStyle=orthogonalEdgeStyle;rounded=0;orthogonalLoop=1;jettySize=auto;html=1;" edge="1" parent="1LYFOesdYeyjKUmjPI9d-79" source="1LYFOesdYeyjKUmjPI9d-139" target="1LYFOesdYeyjKUmjPI9d-140">
          <mxGeometry relative="1" as="geometry" />
        </mxCell>
        <mxCell id="1LYFOesdYeyjKUmjPI9d-146" style="edgeStyle=orthogonalEdgeStyle;rounded=0;orthogonalLoop=1;jettySize=auto;html=1;exitX=1;exitY=0.5;exitDx=0;exitDy=0;" edge="1" parent="1LYFOesdYeyjKUmjPI9d-79" source="1LYFOesdYeyjKUmjPI9d-143" target="1LYFOesdYeyjKUmjPI9d-138">
          <mxGeometry relative="1" as="geometry" />
        </mxCell>
        <mxCell id="1LYFOesdYeyjKUmjPI9d-143" value="3" style="rounded=1;whiteSpace=wrap;html=1;" vertex="1" parent="1LYFOesdYeyjKUmjPI9d-79">
          <mxGeometry x="130" y="500" width="20" height="20" as="geometry" />
        </mxCell>
        <mxCell id="1LYFOesdYeyjKUmjPI9d-144" value="" style="edgeStyle=orthogonalEdgeStyle;rounded=0;orthogonalLoop=1;jettySize=auto;html=1;" edge="1" parent="1LYFOesdYeyjKUmjPI9d-79" source="1LYFOesdYeyjKUmjPI9d-140" target="1LYFOesdYeyjKUmjPI9d-143">
          <mxGeometry relative="1" as="geometry" />
        </mxCell>
        <mxCell id="1LYFOesdYeyjKUmjPI9d-148" value="At most once: can lose some message, best perfomance" style="rounded=1;whiteSpace=wrap;html=1;verticalAlign=top;" vertex="1" parent="1LYFOesdYeyjKUmjPI9d-79">
          <mxGeometry x="341" y="390" width="259" height="60" as="geometry" />
        </mxCell>
        <mxCell id="1LYFOesdYeyjKUmjPI9d-149" value="At least once: can duplicate message" style="rounded=1;whiteSpace=wrap;html=1;verticalAlign=top;" vertex="1" parent="1LYFOesdYeyjKUmjPI9d-79">
          <mxGeometry x="341" y="480" width="259" height="60" as="geometry" />
        </mxCell>
        <mxCell id="1LYFOesdYeyjKUmjPI9d-150" value="Exacly once: worst performance" style="rounded=1;whiteSpace=wrap;html=1;verticalAlign=top;" vertex="1" parent="1LYFOesdYeyjKUmjPI9d-79">
          <mxGeometry x="341" y="570" width="259" height="60" as="geometry" />
        </mxCell>
        <mxCell id="1LYFOesdYeyjKUmjPI9d-154" value="1" style="rounded=1;whiteSpace=wrap;html=1;" vertex="1" parent="1LYFOesdYeyjKUmjPI9d-79">
          <mxGeometry x="370" y="420" width="20" height="20" as="geometry" />
        </mxCell>
        <mxCell id="1LYFOesdYeyjKUmjPI9d-155" value="2" style="rounded=1;whiteSpace=wrap;html=1;" vertex="1" parent="1LYFOesdYeyjKUmjPI9d-79">
          <mxGeometry x="423" y="420" width="20" height="20" as="geometry" />
        </mxCell>
        <mxCell id="1LYFOesdYeyjKUmjPI9d-158" value="1" style="rounded=1;whiteSpace=wrap;html=1;" vertex="1" parent="1LYFOesdYeyjKUmjPI9d-79">
          <mxGeometry x="371.5" y="510" width="20" height="20" as="geometry" />
        </mxCell>
        <mxCell id="1LYFOesdYeyjKUmjPI9d-159" value="2" style="rounded=1;whiteSpace=wrap;html=1;" vertex="1" parent="1LYFOesdYeyjKUmjPI9d-79">
          <mxGeometry x="424.5" y="510" width="20" height="20" as="geometry" />
        </mxCell>
        <mxCell id="1LYFOesdYeyjKUmjPI9d-160" value="3" style="rounded=1;whiteSpace=wrap;html=1;" vertex="1" parent="1LYFOesdYeyjKUmjPI9d-79">
          <mxGeometry x="474.5" y="510" width="20" height="20" as="geometry" />
        </mxCell>
        <mxCell id="1LYFOesdYeyjKUmjPI9d-208" value="3" style="rounded=1;whiteSpace=wrap;html=1;" vertex="1" parent="1LYFOesdYeyjKUmjPI9d-79">
          <mxGeometry x="528.5999999999999" y="510" width="20" height="20" as="geometry" />
        </mxCell>
        <mxCell id="1LYFOesdYeyjKUmjPI9d-209" value="1" style="rounded=1;whiteSpace=wrap;html=1;" vertex="1" parent="1LYFOesdYeyjKUmjPI9d-79">
          <mxGeometry x="373" y="600" width="20" height="20" as="geometry" />
        </mxCell>
        <mxCell id="1LYFOesdYeyjKUmjPI9d-210" value="2" style="rounded=1;whiteSpace=wrap;html=1;" vertex="1" parent="1LYFOesdYeyjKUmjPI9d-79">
          <mxGeometry x="426" y="600" width="20" height="20" as="geometry" />
        </mxCell>
        <mxCell id="1LYFOesdYeyjKUmjPI9d-211" value="3" style="rounded=1;whiteSpace=wrap;html=1;" vertex="1" parent="1LYFOesdYeyjKUmjPI9d-79">
          <mxGeometry x="476" y="600" width="20" height="20" as="geometry" />
        </mxCell>
        <mxCell id="1LYFOesdYeyjKUmjPI9d-212" value="Idempotent producers&lt;br&gt;Quando tenho um idempotente producers , nao existe possibilidade de escrever mensasgens duplicadas no broker" style="rounded=1;whiteSpace=wrap;html=1;arcSize=4;verticalAlign=top;align=left;" vertex="1" parent="1">
          <mxGeometry x="1610" y="-40" width="650" height="570" as="geometry" />
        </mxCell>
        <mxCell id="1LYFOesdYeyjKUmjPI9d-213" value="Idempotent = off&lt;br&gt;Em caso de falha a mensagem é duplicadamente escrita" style="rounded=1;whiteSpace=wrap;html=1;verticalAlign=top;align=left;arcSize=5;" vertex="1" parent="1">
          <mxGeometry x="1660" y="50" width="400" height="90" as="geometry" />
        </mxCell>
        <mxCell id="1LYFOesdYeyjKUmjPI9d-214" value="Idempotent = on&lt;br&gt;Em caso de falha a mensagem não é escrita duplicadamente, verificando o ID do producer e o numero da sequencia da mensagem&lt;br&gt;Mennsagem escrita na ordem correta" style="rounded=1;whiteSpace=wrap;html=1;verticalAlign=top;align=left;arcSize=5;" vertex="1" parent="1">
          <mxGeometry x="1660" y="245" width="400" height="115" as="geometry" />
        </mxCell>
      </root>
    </mxGraphModel>
  </diagram>
</mxfile>
